<?xml version="1.0" encoding="UTF-8" standalone="no"?>
<!-- Created with Inkscape (http://www.inkscape.org/) -->

<svg
   xmlns:dc="http://purl.org/dc/elements/1.1/"
   xmlns:cc="http://creativecommons.org/ns#"
   xmlns:rdf="http://www.w3.org/1999/02/22-rdf-syntax-ns#"
   xmlns:svg="http://www.w3.org/2000/svg"
   xmlns="http://www.w3.org/2000/svg"
   xmlns:sodipodi="http://sodipodi.sourceforge.net/DTD/sodipodi-0.dtd"
   xmlns:inkscape="http://www.inkscape.org/namespaces/inkscape"
   width="400mm"
   height="400mm"
   viewBox="0 0 400 400"
   version="1.1"
   id="svg8"
   inkscape:version="0.92.2 5c3e80d, 2017-08-06"
   sodipodi:docname="robo.svg">
  <defs
     id="defs2" />
  <sodipodi:namedview
     id="base"
     pagecolor="#ffffff"
     bordercolor="#666666"
     borderopacity="1.0"
     inkscape:pageopacity="0.0"
     inkscape:pageshadow="2"
     inkscape:zoom="0.35355339"
     inkscape:cx="371.23942"
     inkscape:cy="677.54787"
     inkscape:document-units="mm"
     inkscape:current-layer="layer1"
     showgrid="false"
     inkscape:window-width="1338"
     inkscape:window-height="850"
     inkscape:window-x="45"
     inkscape:window-y="18"
     inkscape:window-maximized="0"
     showguides="false" />
  <metadata
     id="metadata5">
    <rdf:RDF>
      <cc:Work
         rdf:about="">
        <dc:format>image/svg+xml</dc:format>
        <dc:type
           rdf:resource="http://purl.org/dc/dcmitype/StillImage" />
        <dc:title />
      </cc:Work>
    </rdf:RDF>
  </metadata>
  <g
     inkscape:label="Layer 1"
     inkscape:groupmode="layer"
     id="layer1"
     transform="translate(0,103)">
    <path
       style="opacity:0.98000004;fill:#6f5281;fill-opacity:0.32828285;stroke:#000000;stroke-width:0.2;stroke-miterlimit:4;stroke-dasharray:none;stroke-opacity:1"
       d="m 26.000084,-99.000094 v 4.000273 H 5.9997538 v 16.000057 H 2 v 19.999812 H 5.9997538 V 41.000145 H 2 v 19.999812 h 3.9997538 v 20.00033 H 26.000084 v 3.999756 h 19.999814 v -3.999756 h 32.000113 v 3.999756 h 19.999812 v -3.999756 h 20.000327 v -20.00033 h 3.99975 V 41.000145 h -3.99975 V -58.999952 h 3.99975 v -19.999812 h -3.99975 V -94.999821 H 97.999823 v -3.999756 H 78.000011 v 3.999756 H 45.999898 v -4.000273 z M 21.00039,-52.9998 h 11.999783 v 11.999782 H 21.00039 Z m 34.99993,0 h 11.999785 v 11.999782 H 56.00032 Z m 34.99993,0 h 11.99978 v 11.999782 H 91.00025 Z M 21.00039,26.999448 H 33.000173 V 38.99975 H 21.00039 Z m 34.99993,0 H 68.000105 V 38.99975 H 56.00032 Z m 34.99993,0 h 11.99978 V 38.99975 H 91.00025 Z"
       id="rect871"
       inkscape:connector-curvature="0" />
    <path
       style="opacity:0.98000004;fill:#b8671b;fill-opacity:0.32828285;stroke:#000000;stroke-width:0.2;stroke-miterlimit:4;stroke-dasharray:none;stroke-opacity:1"
       d="m 205.99991,-99.000094 c -5.54,0 -9.99991,4.459907 -9.99991,9.999907 v 160.00005 5.18e-4 30.000229 c 0,19.39 15.60995,39.99963 34.99995,39.99963 19.39001,0 34.99995,-20.60963 34.99995,-39.99963 v -30.000229 -5.18e-4 -160.00005 c 0,-5.54 -4.45991,-9.999907 -9.99991,-9.999907 v 4.000273 h -19.99983 v -4.000273 h -9.99991 v 4.000273 h -20.00034 z m 23.00016,20.00033 h 3.99976 v 19.999812 h -3.99976 z m 0,119.999909 h 3.99976 v 19.999812 h -3.99976 z m -23.00016,40.000142 h 20.00034 v 3.999756 h -20.00034 z m 30.00025,0 h 19.99983 v 3.999756 h -19.99983 z m -20.50056,12.7 c 0.99423,-2.25e-4 1.80034,0.805663 1.80041,1.799893 -7e-5,0.99423 -0.80619,1.80011 -1.80041,1.79989 -0.99403,-6e-5 -1.79983,-0.80586 -1.79989,-1.79989 6e-5,-0.99403 0.80586,-1.799832 1.79989,-1.799893 z m 31.00019,0 c 0.99403,6.1e-5 1.79983,0.805863 1.79989,1.799893 -6e-5,0.99403 -0.80587,1.79983 -1.79989,1.79989 -0.99403,-6e-5 -1.79983,-0.80586 -1.79989,-1.79989 6e-5,-0.99403 0.80586,-1.799832 1.79989,-1.799893 z m -15.49984,6.299873 c 6.07502,8e-5 10.99977,4.92484 10.99985,10.99984 2e-4,6.07522 -4.92463,11.00029 -10.99985,11.00037 -6.07542,2e-4 -11.00057,-4.92496 -11.00037,-11.00037 9e-5,-6.07522 4.92515,-11.00004 11.00037,-10.99984 z m -15.50035,24.69978 c 0.99443,-2.3e-4 1.80063,0.80598 1.80041,1.80041 -7e-5,0.99423 -0.80618,1.80011 -1.80041,1.79989 -0.99403,-7e-5 -1.79983,-0.80586 -1.79989,-1.79989 -2.3e-4,-0.99423 0.80566,-1.80035 1.79989,-1.80041 z m 31.00019,0 c 0.99423,6e-5 1.80011,0.80618 1.79989,1.80041 -6e-5,0.99403 -0.80586,1.79982 -1.79989,1.79989 -0.99403,-7e-5 -1.79983,-0.80586 -1.79989,-1.79989 -2.3e-4,-0.99422 0.80566,-1.80035 1.79989,-1.80041 z"
       id="rect827"
       inkscape:connector-curvature="0" />
    <path
       style="opacity:0.98000004;fill:#528159;fill-opacity:0.32828285;stroke:#000000;stroke-width:0.2;stroke-miterlimit:4;stroke-dasharray:none;stroke-opacity:1"
       d="M 298.9997,80.000086 A 30,30 0 0 0 268.99997,109.9998 30,30 0 0 0 298.9997,140.00006 30,30 0 0 0 328.99993,109.9998 30,30 0 0 0 298.9997,80.000086 Z M 294,90.650086 V 102.5248 a 8.9999999,8.9999999 0 0 0 -2.4784,2.47531 H 279.66083 A 19.999998,19.999998 0 0 1 294,90.650086 Z m 9.9999,0.0103 a 19.999998,19.999998 0 0 1 14.35005,14.339684 h -11.87164 -0.003 A 8.9999999,8.9999999 0 0 0 304,102.52167 Z m -5.0002,16.884744 a 2.4501469,2.4501469 0 0 1 2.45049,2.44947 2.4501469,2.4501469 0 0 1 -0.98494,1.9606 h -2.93004 a 2.4501469,2.4501469 0 0 1 -0.9855,-1.9606 2.4501469,2.4501469 0 0 1 2.44999,-2.44947 z m -19.34972,7.45486 h 11.87162 0.003 a 8.9999999,8.9999999 0 0 0 2.47528,2.4784 v 11.86078 a 19.999998,19.999998 0 0 1 -14.3499,-14.33918 z m 26.82833,0 h 11.86129 a 19.999998,19.999998 0 0 1 -14.3397,14.34951 v -11.87421 a 8.9999999,8.9999999 0 0 0 2.47841,-2.4753 z"
       id="path916"
       inkscape:connector-curvature="0" />
    <path
       style="opacity:0.98000004;fill:#6f5281;fill-opacity:0.32828285;stroke:#000000;stroke-width:0.2;stroke-miterlimit:4;stroke-dasharray:none;stroke-opacity:1"
       d="M 6.00029,87.000137 V 97.00004 H 2 v 20.00033 h 4.00029 v 9.99991 H 2 v 19.99981 H 6.00029 V 157 h 111.99937 v -9.99991 h 4.00026 v -19.99981 h -4.00026 v -9.99991 h 4.00026 V 97.00004 h -4.00026 v -9.999903 z m 50.00003,20.000323 h 11.99981 v 6.00016 H 56.00032 Z m -30.00023,12.99921 h 19.99983 v 4.00027 H 26.00009 Z m 51.99994,5.2e-4 h 19.9998 v 3.99975 h -19.9998 z m -21.99971,11.00036 h 11.99981 v 5.99963 H 56.00032 Z"
       id="rect885"
       inkscape:connector-curvature="0" />
    <path
       style="opacity:0.98000004;fill:#6f5281;fill-opacity:0.32828285;stroke:#000000;stroke-width:0.2;stroke-miterlimit:4;stroke-dasharray:none;stroke-opacity:1"
       d="m 270,-99.00004 v 20.00032 h 4.00027 v 9.99991 H 270 V -49 h 4.00027 111.99937 4.00027 v -19.99981 h -4.00027 v -9.99991 h 4.00027 v -20.00032 h -4.00027 -111.99937 z m 24.00008,22.99962 h 19.99982 v 4.00027 h -19.99982 z m 51.99993,5.2e-4 h 19.99981 v 3.99975 h -19.99981 z"
       id="path892"
       inkscape:connector-curvature="0" />
    <path
       id="path913"
       d="m 133.99992,-99.000094 c -5.54001,0 -9.99992,4.459907 -9.99992,9.999907 v 160.00005 5.18e-4 30.000229 c 0,19.39 15.60995,39.99963 34.99994,39.99963 19.39,0 34.99993,-20.60963 34.99993,-39.99963 v -30.000229 -5.18e-4 -160.00005 c 0,-5.54 -4.4599,-9.999907 -9.99991,-9.999907 v 4.000273 h -19.99981 v -4.000273 h -9.9999 v 4.000273 h -20.00033 z m 23.00014,20.00033 h 3.99976 v 19.999812 h -3.99976 z m 0,119.999909 h 3.99976 v 19.999812 h -3.99976 z m -23.00014,40.000142 h 20.00033 v 3.999756 h -20.00033 z m 30.00023,0 h 19.99981 v 3.999756 h -19.99981 z m -20.50056,12.7 c 0.99423,-2.25e-4 1.80035,0.805663 1.80041,1.799893 -6e-5,0.99423 -0.80618,1.80011 -1.80041,1.79989 -0.99402,-6e-5 -1.79982,-0.80586 -1.79989,-1.79989 7e-5,-0.99403 0.80587,-1.799832 1.79989,-1.799893 z m 31.00018,0 c 0.99403,6.1e-5 1.79983,0.805863 1.79989,1.799893 -6e-5,0.99403 -0.80587,1.79983 -1.79989,1.79989 -0.99403,-6e-5 -1.79983,-0.80586 -1.79989,-1.79989 6e-5,-0.99403 0.80586,-1.799832 1.79989,-1.799893 z m -15.49983,6.299873 c 6.07501,8e-5 10.99976,4.92484 10.99985,10.99984 2e-4,6.07522 -4.92464,11.00029 -10.99985,11.00037 -6.07542,2e-4 -11.00056,-4.92496 -11.00036,-11.00037 8e-5,-6.07522 4.92515,-11.00004 11.00036,-10.99984 z m -15.50035,24.69978 c 0.99444,-2.3e-4 1.80064,0.80598 1.80041,1.80041 -6e-5,0.99423 -0.80618,1.80011 -1.80041,1.79989 -0.99402,-7e-5 -1.79982,-0.80586 -1.79989,-1.79989 -2.2e-4,-0.99423 0.80566,-1.80035 1.79989,-1.80041 z m 31.00018,0 c 0.99423,6e-5 1.80011,0.80618 1.79989,1.80041 -6e-5,0.99403 -0.80586,1.79982 -1.79989,1.79989 -0.99403,-7e-5 -1.79983,-0.80586 -1.79989,-1.79989 -2.3e-4,-0.99422 0.80566,-1.80035 1.79989,-1.80041 z"
       style="opacity:0.98000004;fill:#b8671b;fill-opacity:0.32828285;stroke:#000000;stroke-width:0.2;stroke-miterlimit:4;stroke-dasharray:none;stroke-opacity:1"
       inkscape:connector-curvature="0" />
    <path
       style="opacity:0.98000004;fill:#528159;fill-opacity:0.32828285;stroke:#000000;stroke-width:0.2;stroke-miterlimit:4;stroke-dasharray:none;stroke-opacity:1"
       d="M 299.00018,-47.000346 A 30.999998,30.999998 0 0 0 268,-15.999656 30.999998,30.999998 0 0 0 299.00018,15 a 30.999998,30.999998 0 0 0 31.00019,-30.999656 30.999998,30.999998 0 0 0 -31.00019,-31.00069 z m -4.99968,11.650451 v 11.874726 a 8.9999999,8.9999999 0 0 0 -2.4784,2.475301 h -11.8608 a 19.999998,19.999998 0 0 1 14.3392,-14.350027 z m 9.9999,0.01034 a 19.999998,19.999998 0 0 1 14.35002,14.339692 h -11.87161 -0.003 a 8.9999999,8.9999999 0 0 0 -2.47529,-2.478399 z m -5.00022,16.884756 a 2.4501469,2.4501469 0 0 1 2.45051,2.449465 2.4501469,2.4501469 0 0 1 -0.98496,1.960601 h -2.93005 a 2.4501469,2.4501469 0 0 1 -0.98547,-1.960601 2.4501469,2.4501469 0 0 1 2.44997,-2.449465 z m -19.35023,7.454841 h 5.1e-4 11.87164 0.003 a 8.9999999,8.9999999 0 0 0 2.47478,2.4784015 V 3.3392134 A 19.999998,19.999998 0 0 1 279.64995,-10.999963 Z m 26.82886,0 h 11.86127 A 19.999998,19.999998 0 0 1 304.0004,3.3495484 V -8.5246625 a 8.9999999,8.9999999 0 0 0 2.47841,-2.4753005 z"
       id="path951"
       inkscape:connector-curvature="0" />
    <path
       inkscape:connector-curvature="0"
       id="path959"
       d="M 363.00018,-47.000346 A 30.999998,30.999998 0 0 0 332,-15.999656 30.999998,30.999998 0 0 0 363.00018,15 a 30.999998,30.999998 0 0 0 31.00019,-30.999656 30.999998,30.999998 0 0 0 -31.00019,-31.00069 z m -4.99968,11.650451 v 11.874726 a 8.9999999,8.9999999 0 0 0 -2.4784,2.475301 h -11.8608 a 19.999998,19.999998 0 0 1 14.3392,-14.350027 z m 9.9999,0.01034 a 19.999998,19.999998 0 0 1 14.35002,14.339692 h -11.87161 -0.003 a 8.9999999,8.9999999 0 0 0 -2.47529,-2.478399 z m -5.00022,16.884756 a 2.4501469,2.4501469 0 0 1 2.45051,2.449465 2.4501469,2.4501469 0 0 1 -0.98496,1.960601 h -2.93005 a 2.4501469,2.4501469 0 0 1 -0.98547,-1.960601 2.4501469,2.4501469 0 0 1 2.44997,-2.449465 z m -19.35023,7.454841 h 5.1e-4 11.87164 0.003 a 8.9999999,8.9999999 0 0 0 2.47478,2.4784015 V 3.3392134 A 19.999998,19.999998 0 0 1 343.64995,-10.999963 Z m 26.82886,0 h 11.86127 A 19.999998,19.999998 0 0 1 368.0004,3.3495484 V -8.5246625 a 8.9999999,8.9999999 0 0 0 2.47841,-2.4753005 z"
       style="opacity:0.98000004;fill:#528159;fill-opacity:0.32828285;stroke:#000000;stroke-width:0.2;stroke-miterlimit:4;stroke-dasharray:none;stroke-opacity:1" />
    <path
       inkscape:connector-curvature="0"
       id="path965"
       d="M 299.00018,15.999645 A 30.999998,30.999998 0 0 0 268,47.00034 30.999998,30.999998 0 0 0 299.00018,78 30.999998,30.999998 0 0 0 330.00037,47.00034 30.999998,30.999998 0 0 0 299.00018,15.999645 Z m -4.99968,11.650454 v 11.874723 a 8.9999999,8.9999999 0 0 0 -2.4784,2.475301 h -11.8608 a 19.999998,19.999998 0 0 1 14.3392,-14.350024 z m 9.9999,0.0103 a 19.999998,19.999998 0 0 1 14.35002,14.339694 h -11.87161 -0.003 a 8.9999999,8.9999999 0 0 0 -2.47529,-2.478401 z m -5.00022,16.88475 a 2.4501469,2.4501469 0 0 1 2.45051,2.449471 2.4501469,2.4501469 0 0 1 -0.98496,1.960596 h -2.93005 a 2.4501469,2.4501469 0 0 1 -0.98547,-1.960596 2.4501469,2.4501469 0 0 1 2.44997,-2.449471 z m -19.35023,7.454848 h 5.1e-4 11.87164 0.003 a 8.9999999,8.9999999 0 0 0 2.47478,2.478396 V 66.339166 A 19.999998,19.999998 0 0 1 279.64995,51.999997 Z m 26.82886,0 h 11.86127 A 19.999998,19.999998 0 0 1 304.0004,66.349496 V 54.475293 a 8.9999999,8.9999999 0 0 0 2.47841,-2.475296 z"
       style="opacity:0.98000004;fill:#528159;fill-opacity:0.32828285;stroke:#000000;stroke-width:0.2;stroke-miterlimit:4;stroke-dasharray:none;stroke-opacity:1" />
    <path
       style="opacity:0.98000004;fill:#528159;fill-opacity:0.32828285;stroke:#000000;stroke-width:0.2;stroke-miterlimit:4;stroke-dasharray:none;stroke-opacity:1"
       d="M 363.00018,78.999637 A 30.999998,30.999998 0 0 0 332,110.00033 30.999998,30.999998 0 0 0 363.00018,141 30.999998,30.999998 0 0 0 394.00037,110.00033 30.999998,30.999998 0 0 0 363.00018,78.999637 Z M 358.0005,90.65009 v 11.87472 a 8.9999999,8.9999999 0 0 0 -2.4784,2.4753 h -11.8608 a 19.999998,19.999998 0 0 1 14.3392,-14.35002 z m 9.9999,0.0103 a 19.999998,19.999998 0 0 1 14.35002,14.33969 h -11.87161 -0.003 a 8.9999999,8.9999999 0 0 0 -2.47529,-2.4784 z m -5.00022,16.88475 a 2.4501469,2.4501469 0 0 1 2.45051,2.44947 2.4501469,2.4501469 0 0 1 -0.98496,1.9606 h -2.93005 a 2.4501469,2.4501469 0 0 1 -0.98547,-1.9606 2.4501469,2.4501469 0 0 1 2.44997,-2.44947 z m -19.35023,7.45485 h 5.1e-4 11.87164 0.003 a 8.9999999,8.9999999 0 0 0 2.47478,2.4784 v 11.86078 a 19.999998,19.999998 0 0 1 -14.34993,-14.33918 z m 26.82886,0 h 11.86127 A 19.999998,19.999998 0 0 1 368.0004,129.3495 v -11.87421 a 8.9999999,8.9999999 0 0 0 2.47841,-2.4753 z"
       id="path967"
       inkscape:connector-curvature="0" />
    <path
       inkscape:connector-curvature="0"
       id="path969"
       d="M 363.0002,17.000099 A 30,30 0 0 0 333.00047,46.99982 30,30 0 0 0 363.0002,77.00007 30,30 0 0 0 393.00043,46.99982 30,30 0 0 0 363.0002,17.000099 Z m -4.9997,10.65 v 11.874723 a 8.9999999,8.9999999 0 0 0 -2.4784,2.475311 H 343.66133 A 19.999998,19.999998 0 0 1 358.0005,27.650099 Z m 9.9999,0.0103 a 19.999998,19.999998 0 0 1 14.35005,14.339694 h -11.87164 -0.003 a 8.9999999,8.9999999 0 0 0 -2.47531,-2.478401 z m -5.0002,16.88475 a 2.4501469,2.4501469 0 0 1 2.45049,2.449471 2.4501469,2.4501469 0 0 1 -0.98494,1.960596 h -2.93004 a 2.4501469,2.4501469 0 0 1 -0.9855,-1.960596 2.4501469,2.4501469 0 0 1 2.44999,-2.449471 z m -19.34972,7.454848 h 11.87162 0.003 a 8.9999999,8.9999999 0 0 0 2.47528,2.478396 v 11.860783 a 19.999998,19.999998 0 0 1 -14.3499,-14.339179 z m 26.82833,0 H 382.3401 A 19.999998,19.999998 0 0 1 368.0004,66.349506 V 54.475293 a 8.9999999,8.9999999 0 0 0 2.47841,-2.475296 z"
       style="opacity:0.98000004;fill:#528159;fill-opacity:0.32828285;stroke:#000000;stroke-width:0.2;stroke-miterlimit:4;stroke-dasharray:none;stroke-opacity:1" />
  </g>
</svg>
