  0
SECTION
  2
HEADER
  9
$ACADVER
  1
AC1014
  9
$HANDSEED
  5
FFFF
  9
$MEASUREMENT
 70
     1
  0
ENDSEC
  0
SECTION
  2
TABLES
  0
TABLE
  2
VPORT
  5
8
330
0
100
AcDbSymbolTable
 70
     4
  0
VPORT
  5
2E
330
8
100
AcDbSymbolTableRecord
100
AcDbViewportTableRecord
  2
*ACTIVE
 70
     0
 10
0.0
 20
0.0
 11
1.0
 21
1.0
 12
210.0
 22
148.5
 13
0.0
 23
0.0
 14
10.0
 24
10.0
 15
10.0
 25
10.0
 16
0.0
 26
0.0
 36
1.0
 17
0.0
 27
0.0
 37
0.0
 40
341.0
 41
1.24
 42
50.0
 43
0.0
 44
0.0
 50
0.0
 51
0.0
 71
     0
 72
   100
 73
     1
 74
     3
 75
     0
 76
     0
 77
     0
 78
     0
  0
ENDTAB
  0
TABLE
  2
LTYPE
  5
5
330
0
100
AcDbSymbolTable
 70
     1
  0
LTYPE
  5
14
330
5
100
AcDbSymbolTableRecord
100
AcDbLinetypeTableRecord
  2
BYBLOCK
 70
     0
  3

 72
    65
 73
     0
 40
0.0
  0
LTYPE
  5
15
330
5
100
AcDbSymbolTableRecord
100
AcDbLinetypeTableRecord
  2
BYLAYER
 70
     0
  3

 72
    65
 73
     0
 40
0.0
  0
LTYPE
  5
16
330
5
100
AcDbSymbolTableRecord
100
AcDbLinetypeTableRecord
  2
CONTINUOUS
 70
     0
  3
Solid line
 72
    65
 73
     0
 40
0.0
  0
ENDTAB
  0
TABLE
  2
LAYER
  5
2
100
AcDbSymbolTable
 70
2
  0
LAYER
  5
50
100
AcDbSymbolTableRecord
100
AcDbLayerTableRecord
  2
0
 70
0
  6
CONTINUOUS
  0
LAYER
  5
51
100
AcDbSymbolTableRecord
100
AcDbLayerTableRecord
  2
Layer_1
 70
0
  6
CONTINUOUS
  0
ENDTAB
  0
TABLE
  2
STYLE
  5
3
330
0
100
AcDbSymbolTable
 70
     1
  0
STYLE
  5
11
330
3
100
AcDbSymbolTableRecord
100
AcDbTextStyleTableRecord
  2
STANDARD
 70
     0
 40
0.0
 41
1.0
 50
0.0
 71
     0
 42
2.5
  3
txt
  4

  0
ENDTAB
  0
TABLE
  2
VIEW
  5
6
330
0
100
AcDbSymbolTable
 70
     0
  0
ENDTAB
  0
TABLE
  2
UCS
  5
7
330
0
100
AcDbSymbolTable
 70
     0
  0
ENDTAB
  0
TABLE
  2
APPID
  5
9
330
0
100
AcDbSymbolTable
 70
     2
  0
APPID
  5
12
330
9
100
AcDbSymbolTableRecord
100
AcDbRegAppTableRecord
  2
ACAD
 70
     0
  0
ENDTAB
  0
TABLE
  2
DIMSTYLE
  5
A
330
0
100
AcDbSymbolTable
 70
     1
  0
DIMSTYLE
105
27
330
A
100
AcDbSymbolTableRecord
100
AcDbDimStyleTableRecord
  2
ISO-25
 70
     0
  3

  4

  5

  6

  7

 40
1.0
 41
2.5
 42
0.625
 43
3.75
 44
1.25
 45
0.0
 46
0.0
 47
0.0
 48
0.0
140
2.5
141
2.5
142
0.0
143
0.03937007874016
144
1.0
145
0.0
146
1.0
147
0.625
 71
     0
 72
     0
 73
     0
 74
     0
 75
     0
 76
     0
 77
     1
 78
     8
170
     0
171
     3
172
     1
173
     0
174
     0
175
     0
176
     0
177
     0
178
     0
270
     2
271
     2
272
     2
273
     2
274
     3
340
11
275
     0
280
     0
281
     0
282
     0
283
     0
284
     8
285
     0
286
     0
287
     3
288
     0
  0
ENDTAB
  0
TABLE
  2
BLOCK_RECORD
  5
1
330
0
100
AcDbSymbolTable
 70
     1
  0
BLOCK_RECORD
  5
1F
330
1
100
AcDbSymbolTableRecord
100
AcDbBlockTableRecord
  2
*MODEL_SPACE
  0
BLOCK_RECORD
  5
1B
330
1
100
AcDbSymbolTableRecord
100
AcDbBlockTableRecord
  2
*PAPER_SPACE
  0
ENDTAB
  0
ENDSEC
  0
SECTION
  2
BLOCKS
  0
BLOCK
  5
20
330
1F
100
AcDbEntity
  8
0
100
AcDbBlockBegin
  2
*MODEL_SPACE
 70
     0
 10
0.0
 20
0.0
 30
0.0
  3
*MODEL_SPACE
  1

  0
ENDBLK
  5
21
330
1F
100
AcDbEntity
  8
0
100
AcDbBlockEnd
  0
BLOCK
  5
1C
330
1B
100
AcDbEntity
 67
     1
  8
0
100
AcDbBlockBegin
  2
*PAPER_SPACE
  1

  0
ENDBLK
  5
1D
330
1B
100
AcDbEntity
 67
     1
  8
0
100
AcDbBlockEnd
  0
ENDSEC
  0
SECTION
  2
ENTITIES
  0
LINE
  5
100
100
AcDbEntity
  8
Layer_1
 62
7
100
AcDbLine
 10
26.000084
 20
396.000094
 30
0.0
 11
26.000084
 21
391.999821
 31
0.0
  0
LINE
  5
101
100
AcDbEntity
  8
Layer_1
 62
7
100
AcDbLine
 10
26.000084
 20
391.999821
 30
0.0
 11
5.999754
 21
391.999821
 31
0.0
  0
LINE
  5
102
100
AcDbEntity
  8
Layer_1
 62
7
100
AcDbLine
 10
5.999754
 20
391.999821
 30
0.0
 11
5.999754
 21
375.999764
 31
0.0
  0
LINE
  5
103
100
AcDbEntity
  8
Layer_1
 62
7
100
AcDbLine
 10
5.999754
 20
375.999764
 30
0.0
 11
2.000000
 21
375.999764
 31
0.0
  0
LINE
  5
104
100
AcDbEntity
  8
Layer_1
 62
7
100
AcDbLine
 10
2.000000
 20
375.999764
 30
0.0
 11
2.000000
 21
355.999952
 31
0.0
  0
LINE
  5
105
100
AcDbEntity
  8
Layer_1
 62
7
100
AcDbLine
 10
2.000000
 20
355.999952
 30
0.0
 11
5.999754
 21
355.999952
 31
0.0
  0
LINE
  5
106
100
AcDbEntity
  8
Layer_1
 62
7
100
AcDbLine
 10
5.999754
 20
355.999952
 30
0.0
 11
5.999754
 21
255.999855
 31
0.0
  0
LINE
  5
107
100
AcDbEntity
  8
Layer_1
 62
7
100
AcDbLine
 10
5.999754
 20
255.999855
 30
0.0
 11
2.000000
 21
255.999855
 31
0.0
  0
LINE
  5
108
100
AcDbEntity
  8
Layer_1
 62
7
100
AcDbLine
 10
2.000000
 20
255.999855
 30
0.0
 11
2.000000
 21
236.000043
 31
0.0
  0
LINE
  5
109
100
AcDbEntity
  8
Layer_1
 62
7
100
AcDbLine
 10
2.000000
 20
236.000043
 30
0.0
 11
5.999754
 21
236.000043
 31
0.0
  0
LINE
  5
10a
100
AcDbEntity
  8
Layer_1
 62
7
100
AcDbLine
 10
5.999754
 20
236.000043
 30
0.0
 11
5.999754
 21
215.999713
 31
0.0
  0
LINE
  5
10b
100
AcDbEntity
  8
Layer_1
 62
7
100
AcDbLine
 10
5.999754
 20
215.999713
 30
0.0
 11
26.000084
 21
215.999713
 31
0.0
  0
LINE
  5
10c
100
AcDbEntity
  8
Layer_1
 62
7
100
AcDbLine
 10
26.000084
 20
215.999713
 30
0.0
 11
26.000084
 21
211.999957
 31
0.0
  0
LINE
  5
10d
100
AcDbEntity
  8
Layer_1
 62
7
100
AcDbLine
 10
26.000084
 20
211.999957
 30
0.0
 11
45.999898
 21
211.999957
 31
0.0
  0
LINE
  5
10e
100
AcDbEntity
  8
Layer_1
 62
7
100
AcDbLine
 10
45.999898
 20
211.999957
 30
0.0
 11
45.999898
 21
215.999713
 31
0.0
  0
LINE
  5
10f
100
AcDbEntity
  8
Layer_1
 62
7
100
AcDbLine
 10
45.999898
 20
215.999713
 30
0.0
 11
78.000011
 21
215.999713
 31
0.0
  0
LINE
  5
110
100
AcDbEntity
  8
Layer_1
 62
7
100
AcDbLine
 10
78.000011
 20
215.999713
 30
0.0
 11
78.000011
 21
211.999957
 31
0.0
  0
LINE
  5
111
100
AcDbEntity
  8
Layer_1
 62
7
100
AcDbLine
 10
78.000011
 20
211.999957
 30
0.0
 11
97.999823
 21
211.999957
 31
0.0
  0
LINE
  5
112
100
AcDbEntity
  8
Layer_1
 62
7
100
AcDbLine
 10
97.999823
 20
211.999957
 30
0.0
 11
97.999823
 21
215.999713
 31
0.0
  0
LINE
  5
113
100
AcDbEntity
  8
Layer_1
 62
7
100
AcDbLine
 10
97.999823
 20
215.999713
 30
0.0
 11
118.000150
 21
215.999713
 31
0.0
  0
LINE
  5
114
100
AcDbEntity
  8
Layer_1
 62
7
100
AcDbLine
 10
118.000150
 20
215.999713
 30
0.0
 11
118.000150
 21
236.000043
 31
0.0
  0
LINE
  5
115
100
AcDbEntity
  8
Layer_1
 62
7
100
AcDbLine
 10
118.000150
 20
236.000043
 30
0.0
 11
121.999900
 21
236.000043
 31
0.0
  0
LINE
  5
116
100
AcDbEntity
  8
Layer_1
 62
7
100
AcDbLine
 10
121.999900
 20
236.000043
 30
0.0
 11
121.999900
 21
255.999855
 31
0.0
  0
LINE
  5
117
100
AcDbEntity
  8
Layer_1
 62
7
100
AcDbLine
 10
121.999900
 20
255.999855
 30
0.0
 11
118.000150
 21
255.999855
 31
0.0
  0
LINE
  5
118
100
AcDbEntity
  8
Layer_1
 62
7
100
AcDbLine
 10
118.000150
 20
255.999855
 30
0.0
 11
118.000150
 21
355.999952
 31
0.0
  0
LINE
  5
119
100
AcDbEntity
  8
Layer_1
 62
7
100
AcDbLine
 10
118.000150
 20
355.999952
 30
0.0
 11
121.999900
 21
355.999952
 31
0.0
  0
LINE
  5
11a
100
AcDbEntity
  8
Layer_1
 62
7
100
AcDbLine
 10
121.999900
 20
355.999952
 30
0.0
 11
121.999900
 21
375.999764
 31
0.0
  0
LINE
  5
11b
100
AcDbEntity
  8
Layer_1
 62
7
100
AcDbLine
 10
121.999900
 20
375.999764
 30
0.0
 11
118.000150
 21
375.999764
 31
0.0
  0
LINE
  5
11c
100
AcDbEntity
  8
Layer_1
 62
7
100
AcDbLine
 10
118.000150
 20
375.999764
 30
0.0
 11
118.000150
 21
391.999821
 31
0.0
  0
LINE
  5
11d
100
AcDbEntity
  8
Layer_1
 62
7
100
AcDbLine
 10
118.000150
 20
391.999821
 30
0.0
 11
97.999823
 21
391.999821
 31
0.0
  0
LINE
  5
11e
100
AcDbEntity
  8
Layer_1
 62
7
100
AcDbLine
 10
97.999823
 20
391.999821
 30
0.0
 11
97.999823
 21
395.999577
 31
0.0
  0
LINE
  5
11f
100
AcDbEntity
  8
Layer_1
 62
7
100
AcDbLine
 10
97.999823
 20
395.999577
 30
0.0
 11
78.000011
 21
395.999577
 31
0.0
  0
LINE
  5
120
100
AcDbEntity
  8
Layer_1
 62
7
100
AcDbLine
 10
78.000011
 20
395.999577
 30
0.0
 11
78.000011
 21
391.999821
 31
0.0
  0
LINE
  5
121
100
AcDbEntity
  8
Layer_1
 62
7
100
AcDbLine
 10
78.000011
 20
391.999821
 30
0.0
 11
45.999898
 21
391.999821
 31
0.0
  0
LINE
  5
122
100
AcDbEntity
  8
Layer_1
 62
7
100
AcDbLine
 10
45.999898
 20
391.999821
 30
0.0
 11
45.999898
 21
396.000094
 31
0.0
  0
LINE
  5
123
100
AcDbEntity
  8
Layer_1
 62
7
100
AcDbLine
 10
45.999898
 20
396.000094
 30
0.0
 11
26.000084
 21
396.000094
 31
0.0
  0
LINE
  5
124
100
AcDbEntity
  8
Layer_1
 62
7
100
AcDbLine
 10
21.000390
 20
349.999800
 30
0.0
 11
33.000173
 21
349.999800
 31
0.0
  0
LINE
  5
125
100
AcDbEntity
  8
Layer_1
 62
7
100
AcDbLine
 10
33.000173
 20
349.999800
 30
0.0
 11
33.000173
 21
338.000018
 31
0.0
  0
LINE
  5
126
100
AcDbEntity
  8
Layer_1
 62
7
100
AcDbLine
 10
33.000173
 20
338.000018
 30
0.0
 11
21.000390
 21
338.000018
 31
0.0
  0
LINE
  5
127
100
AcDbEntity
  8
Layer_1
 62
7
100
AcDbLine
 10
21.000390
 20
338.000018
 30
0.0
 11
21.000390
 21
349.999800
 31
0.0
  0
LINE
  5
128
100
AcDbEntity
  8
Layer_1
 62
7
100
AcDbLine
 10
56.000320
 20
349.999800
 30
0.0
 11
68.000105
 21
349.999800
 31
0.0
  0
LINE
  5
129
100
AcDbEntity
  8
Layer_1
 62
7
100
AcDbLine
 10
68.000105
 20
349.999800
 30
0.0
 11
68.000105
 21
338.000018
 31
0.0
  0
LINE
  5
12a
100
AcDbEntity
  8
Layer_1
 62
7
100
AcDbLine
 10
68.000105
 20
338.000018
 30
0.0
 11
56.000320
 21
338.000018
 31
0.0
  0
LINE
  5
12b
100
AcDbEntity
  8
Layer_1
 62
7
100
AcDbLine
 10
56.000320
 20
338.000018
 30
0.0
 11
56.000320
 21
349.999800
 31
0.0
  0
LINE
  5
12c
100
AcDbEntity
  8
Layer_1
 62
7
100
AcDbLine
 10
91.000250
 20
349.999800
 30
0.0
 11
103.000030
 21
349.999800
 31
0.0
  0
LINE
  5
12d
100
AcDbEntity
  8
Layer_1
 62
7
100
AcDbLine
 10
103.000030
 20
349.999800
 30
0.0
 11
103.000030
 21
338.000018
 31
0.0
  0
LINE
  5
12e
100
AcDbEntity
  8
Layer_1
 62
7
100
AcDbLine
 10
103.000030
 20
338.000018
 30
0.0
 11
91.000250
 21
338.000018
 31
0.0
  0
LINE
  5
12f
100
AcDbEntity
  8
Layer_1
 62
7
100
AcDbLine
 10
91.000250
 20
338.000018
 30
0.0
 11
91.000250
 21
349.999800
 31
0.0
  0
LINE
  5
130
100
AcDbEntity
  8
Layer_1
 62
7
100
AcDbLine
 10
21.000390
 20
270.000552
 30
0.0
 11
33.000173
 21
270.000552
 31
0.0
  0
LINE
  5
131
100
AcDbEntity
  8
Layer_1
 62
7
100
AcDbLine
 10
33.000173
 20
270.000552
 30
0.0
 11
33.000173
 21
258.000250
 31
0.0
  0
LINE
  5
132
100
AcDbEntity
  8
Layer_1
 62
7
100
AcDbLine
 10
33.000173
 20
258.000250
 30
0.0
 11
21.000390
 21
258.000250
 31
0.0
  0
LINE
  5
133
100
AcDbEntity
  8
Layer_1
 62
7
100
AcDbLine
 10
21.000390
 20
258.000250
 30
0.0
 11
21.000390
 21
270.000552
 31
0.0
  0
LINE
  5
134
100
AcDbEntity
  8
Layer_1
 62
7
100
AcDbLine
 10
56.000320
 20
270.000552
 30
0.0
 11
68.000105
 21
270.000552
 31
0.0
  0
LINE
  5
135
100
AcDbEntity
  8
Layer_1
 62
7
100
AcDbLine
 10
68.000105
 20
270.000552
 30
0.0
 11
68.000105
 21
258.000250
 31
0.0
  0
LINE
  5
136
100
AcDbEntity
  8
Layer_1
 62
7
100
AcDbLine
 10
68.000105
 20
258.000250
 30
0.0
 11
56.000320
 21
258.000250
 31
0.0
  0
LINE
  5
137
100
AcDbEntity
  8
Layer_1
 62
7
100
AcDbLine
 10
56.000320
 20
258.000250
 30
0.0
 11
56.000320
 21
270.000552
 31
0.0
  0
LINE
  5
138
100
AcDbEntity
  8
Layer_1
 62
7
100
AcDbLine
 10
91.000250
 20
270.000552
 30
0.0
 11
103.000030
 21
270.000552
 31
0.0
  0
LINE
  5
139
100
AcDbEntity
  8
Layer_1
 62
7
100
AcDbLine
 10
103.000030
 20
270.000552
 30
0.0
 11
103.000030
 21
258.000250
 31
0.0
  0
LINE
  5
13a
100
AcDbEntity
  8
Layer_1
 62
7
100
AcDbLine
 10
103.000030
 20
258.000250
 30
0.0
 11
91.000250
 21
258.000250
 31
0.0
  0
LINE
  5
13b
100
AcDbEntity
  8
Layer_1
 62
7
100
AcDbLine
 10
91.000250
 20
258.000250
 30
0.0
 11
91.000250
 21
270.000552
 31
0.0
  0
SPLINE
  5
13c
100
AcDbEntity
  8
Layer_1
 62
7
100
AcDbSpline
 70
8
 71
3
 72
8
 73
4
 74
0
 40
0
 40
0
 40
0
 40
0
 40
1
 40
1
 40
1
 40
1
 10
205.999910
 20
396.000094
 30
0.0
 10
200.459910
 20
396.000094
 30
0.0
 10
196.000000
 20
391.540187
 30
0.0
 10
196.000000
 20
386.000187
 30
0.0
  0
LINE
  5
13d
100
AcDbEntity
  8
Layer_1
 62
7
100
AcDbLine
 10
196.000000
 20
386.000187
 30
0.0
 11
196.000000
 21
226.000137
 31
0.0
  0
LINE
  5
13e
100
AcDbEntity
  8
Layer_1
 62
7
100
AcDbLine
 10
196.000000
 20
226.000137
 30
0.0
 11
196.000000
 21
225.999619
 31
0.0
  0
LINE
  5
13f
100
AcDbEntity
  8
Layer_1
 62
7
100
AcDbLine
 10
196.000000
 20
225.999619
 30
0.0
 11
196.000000
 21
195.999390
 31
0.0
  0
SPLINE
  5
140
100
AcDbEntity
  8
Layer_1
 62
7
100
AcDbSpline
 70
8
 71
3
 72
8
 73
4
 74
0
 40
0
 40
0
 40
0
 40
0
 40
1
 40
1
 40
1
 40
1
 10
196.000000
 20
195.999390
 30
0.0
 10
196.000000
 20
176.609390
 30
0.0
 10
211.609950
 20
155.999760
 30
0.0
 10
230.999950
 20
155.999760
 30
0.0
  0
SPLINE
  5
141
100
AcDbEntity
  8
Layer_1
 62
7
100
AcDbSpline
 70
8
 71
3
 72
8
 73
4
 74
0
 40
0
 40
0
 40
0
 40
0
 40
1
 40
1
 40
1
 40
1
 10
230.999950
 20
155.999760
 30
0.0
 10
250.389960
 20
155.999760
 30
0.0
 10
265.999900
 20
176.609390
 30
0.0
 10
265.999900
 20
195.999390
 30
0.0
  0
LINE
  5
142
100
AcDbEntity
  8
Layer_1
 62
7
100
AcDbLine
 10
265.999900
 20
195.999390
 30
0.0
 11
265.999900
 21
225.999619
 31
0.0
  0
LINE
  5
143
100
AcDbEntity
  8
Layer_1
 62
7
100
AcDbLine
 10
265.999900
 20
225.999619
 30
0.0
 11
265.999900
 21
226.000137
 31
0.0
  0
LINE
  5
144
100
AcDbEntity
  8
Layer_1
 62
7
100
AcDbLine
 10
265.999900
 20
226.000137
 30
0.0
 11
265.999900
 21
386.000187
 31
0.0
  0
SPLINE
  5
145
100
AcDbEntity
  8
Layer_1
 62
7
100
AcDbSpline
 70
8
 71
3
 72
8
 73
4
 74
0
 40
0
 40
0
 40
0
 40
0
 40
1
 40
1
 40
1
 40
1
 10
265.999900
 20
386.000187
 30
0.0
 10
265.999900
 20
391.540187
 30
0.0
 10
261.539990
 20
396.000094
 30
0.0
 10
255.999990
 20
396.000094
 30
0.0
  0
LINE
  5
146
100
AcDbEntity
  8
Layer_1
 62
7
100
AcDbLine
 10
255.999990
 20
396.000094
 30
0.0
 11
255.999990
 21
391.999821
 31
0.0
  0
LINE
  5
147
100
AcDbEntity
  8
Layer_1
 62
7
100
AcDbLine
 10
255.999990
 20
391.999821
 30
0.0
 11
236.000160
 21
391.999821
 31
0.0
  0
LINE
  5
148
100
AcDbEntity
  8
Layer_1
 62
7
100
AcDbLine
 10
236.000160
 20
391.999821
 30
0.0
 11
236.000160
 21
396.000094
 31
0.0
  0
LINE
  5
149
100
AcDbEntity
  8
Layer_1
 62
7
100
AcDbLine
 10
236.000160
 20
396.000094
 30
0.0
 11
226.000250
 21
396.000094
 31
0.0
  0
LINE
  5
14a
100
AcDbEntity
  8
Layer_1
 62
7
100
AcDbLine
 10
226.000250
 20
396.000094
 30
0.0
 11
226.000250
 21
391.999821
 31
0.0
  0
LINE
  5
14b
100
AcDbEntity
  8
Layer_1
 62
7
100
AcDbLine
 10
226.000250
 20
391.999821
 30
0.0
 11
205.999910
 21
391.999821
 31
0.0
  0
LINE
  5
14c
100
AcDbEntity
  8
Layer_1
 62
7
100
AcDbLine
 10
205.999910
 20
391.999821
 30
0.0
 11
205.999910
 21
396.000094
 31
0.0
  0
LINE
  5
14d
100
AcDbEntity
  8
Layer_1
 62
7
100
AcDbLine
 10
229.000070
 20
375.999764
 30
0.0
 11
232.999830
 21
375.999764
 31
0.0
  0
LINE
  5
14e
100
AcDbEntity
  8
Layer_1
 62
7
100
AcDbLine
 10
232.999830
 20
375.999764
 30
0.0
 11
232.999830
 21
355.999952
 31
0.0
  0
LINE
  5
14f
100
AcDbEntity
  8
Layer_1
 62
7
100
AcDbLine
 10
232.999830
 20
355.999952
 30
0.0
 11
229.000070
 21
355.999952
 31
0.0
  0
LINE
  5
150
100
AcDbEntity
  8
Layer_1
 62
7
100
AcDbLine
 10
229.000070
 20
355.999952
 30
0.0
 11
229.000070
 21
375.999764
 31
0.0
  0
LINE
  5
151
100
AcDbEntity
  8
Layer_1
 62
7
100
AcDbLine
 10
229.000070
 20
255.999855
 30
0.0
 11
232.999830
 21
255.999855
 31
0.0
  0
LINE
  5
152
100
AcDbEntity
  8
Layer_1
 62
7
100
AcDbLine
 10
232.999830
 20
255.999855
 30
0.0
 11
232.999830
 21
236.000043
 31
0.0
  0
LINE
  5
153
100
AcDbEntity
  8
Layer_1
 62
7
100
AcDbLine
 10
232.999830
 20
236.000043
 30
0.0
 11
229.000070
 21
236.000043
 31
0.0
  0
LINE
  5
154
100
AcDbEntity
  8
Layer_1
 62
7
100
AcDbLine
 10
229.000070
 20
236.000043
 30
0.0
 11
229.000070
 21
255.999855
 31
0.0
  0
LINE
  5
155
100
AcDbEntity
  8
Layer_1
 62
7
100
AcDbLine
 10
205.999910
 20
215.999713
 30
0.0
 11
226.000250
 21
215.999713
 31
0.0
  0
LINE
  5
156
100
AcDbEntity
  8
Layer_1
 62
7
100
AcDbLine
 10
226.000250
 20
215.999713
 30
0.0
 11
226.000250
 21
211.999957
 31
0.0
  0
LINE
  5
157
100
AcDbEntity
  8
Layer_1
 62
7
100
AcDbLine
 10
226.000250
 20
211.999957
 30
0.0
 11
205.999910
 21
211.999957
 31
0.0
  0
LINE
  5
158
100
AcDbEntity
  8
Layer_1
 62
7
100
AcDbLine
 10
205.999910
 20
211.999957
 30
0.0
 11
205.999910
 21
215.999713
 31
0.0
  0
LINE
  5
159
100
AcDbEntity
  8
Layer_1
 62
7
100
AcDbLine
 10
236.000160
 20
215.999713
 30
0.0
 11
255.999990
 21
215.999713
 31
0.0
  0
LINE
  5
15a
100
AcDbEntity
  8
Layer_1
 62
7
100
AcDbLine
 10
255.999990
 20
215.999713
 30
0.0
 11
255.999990
 21
211.999957
 31
0.0
  0
LINE
  5
15b
100
AcDbEntity
  8
Layer_1
 62
7
100
AcDbLine
 10
255.999990
 20
211.999957
 30
0.0
 11
236.000160
 21
211.999957
 31
0.0
  0
LINE
  5
15c
100
AcDbEntity
  8
Layer_1
 62
7
100
AcDbLine
 10
236.000160
 20
211.999957
 30
0.0
 11
236.000160
 21
215.999713
 31
0.0
  0
SPLINE
  5
15d
100
AcDbEntity
  8
Layer_1
 62
7
100
AcDbSpline
 70
8
 71
3
 72
8
 73
4
 74
0
 40
0
 40
0
 40
0
 40
0
 40
1
 40
1
 40
1
 40
1
 10
215.499600
 20
203.299713
 30
0.0
 10
216.493830
 20
203.299938
 30
0.0
 10
217.299940
 20
202.494050
 30
0.0
 10
217.300010
 20
201.499820
 30
0.0
  0
SPLINE
  5
15e
100
AcDbEntity
  8
Layer_1
 62
7
100
AcDbSpline
 70
8
 71
3
 72
8
 73
4
 74
0
 40
0
 40
0
 40
0
 40
0
 40
1
 40
1
 40
1
 40
1
 10
217.300010
 20
201.499820
 30
0.0
 10
217.299940
 20
200.505590
 30
0.0
 10
216.493820
 20
199.699710
 30
0.0
 10
215.499600
 20
199.699930
 30
0.0
  0
SPLINE
  5
15f
100
AcDbEntity
  8
Layer_1
 62
7
100
AcDbSpline
 70
8
 71
3
 72
8
 73
4
 74
0
 40
0
 40
0
 40
0
 40
0
 40
1
 40
1
 40
1
 40
1
 10
215.499600
 20
199.699930
 30
0.0
 10
214.505570
 20
199.699990
 30
0.0
 10
213.699770
 20
200.505790
 30
0.0
 10
213.699710
 20
201.499820
 30
0.0
  0
SPLINE
  5
160
100
AcDbEntity
  8
Layer_1
 62
7
100
AcDbSpline
 70
8
 71
3
 72
8
 73
4
 74
0
 40
0
 40
0
 40
0
 40
0
 40
1
 40
1
 40
1
 40
1
 10
213.699710
 20
201.499820
 30
0.0
 10
213.699770
 20
202.493850
 30
0.0
 10
214.505570
 20
203.299652
 30
0.0
 10
215.499600
 20
203.299713
 30
0.0
  0
LINE
  5
161
100
AcDbEntity
  8
Layer_1
 62
7
100
AcDbLine
 10
215.499600
 20
203.299713
 30
0.0
 11
215.499600
 21
203.299713
 31
0.0
  0
SPLINE
  5
162
100
AcDbEntity
  8
Layer_1
 62
7
100
AcDbSpline
 70
8
 71
3
 72
8
 73
4
 74
0
 40
0
 40
0
 40
0
 40
0
 40
1
 40
1
 40
1
 40
1
 10
246.499790
 20
203.299713
 30
0.0
 10
247.493820
 20
203.299652
 30
0.0
 10
248.299620
 20
202.493850
 30
0.0
 10
248.299680
 20
201.499820
 30
0.0
  0
SPLINE
  5
163
100
AcDbEntity
  8
Layer_1
 62
7
100
AcDbSpline
 70
8
 71
3
 72
8
 73
4
 74
0
 40
0
 40
0
 40
0
 40
0
 40
1
 40
1
 40
1
 40
1
 10
248.299680
 20
201.499820
 30
0.0
 10
248.299620
 20
200.505790
 30
0.0
 10
247.493810
 20
199.699990
 30
0.0
 10
246.499790
 20
199.699930
 30
0.0
  0
SPLINE
  5
164
100
AcDbEntity
  8
Layer_1
 62
7
100
AcDbSpline
 70
8
 71
3
 72
8
 73
4
 74
0
 40
0
 40
0
 40
0
 40
0
 40
1
 40
1
 40
1
 40
1
 10
246.499790
 20
199.699930
 30
0.0
 10
245.505760
 20
199.699990
 30
0.0
 10
244.699960
 20
200.505790
 30
0.0
 10
244.699900
 20
201.499820
 30
0.0
  0
SPLINE
  5
165
100
AcDbEntity
  8
Layer_1
 62
7
100
AcDbSpline
 70
8
 71
3
 72
8
 73
4
 74
0
 40
0
 40
0
 40
0
 40
0
 40
1
 40
1
 40
1
 40
1
 10
244.699900
 20
201.499820
 30
0.0
 10
244.699960
 20
202.493850
 30
0.0
 10
245.505760
 20
203.299652
 30
0.0
 10
246.499790
 20
203.299713
 30
0.0
  0
LINE
  5
166
100
AcDbEntity
  8
Layer_1
 62
7
100
AcDbLine
 10
246.499790
 20
203.299713
 30
0.0
 11
246.499790
 21
203.299713
 31
0.0
  0
SPLINE
  5
167
100
AcDbEntity
  8
Layer_1
 62
7
100
AcDbSpline
 70
8
 71
3
 72
8
 73
4
 74
0
 40
0
 40
0
 40
0
 40
0
 40
1
 40
1
 40
1
 40
1
 10
230.999950
 20
196.999840
 30
0.0
 10
237.074970
 20
196.999760
 30
0.0
 10
241.999720
 20
192.075000
 30
0.0
 10
241.999800
 20
186.000000
 30
0.0
  0
SPLINE
  5
168
100
AcDbEntity
  8
Layer_1
 62
7
100
AcDbSpline
 70
8
 71
3
 72
8
 73
4
 74
0
 40
0
 40
0
 40
0
 40
0
 40
1
 40
1
 40
1
 40
1
 10
241.999800
 20
186.000000
 30
0.0
 10
242.000000
 20
179.924780
 30
0.0
 10
237.075170
 20
174.999710
 30
0.0
 10
230.999950
 20
174.999630
 30
0.0
  0
SPLINE
  5
169
100
AcDbEntity
  8
Layer_1
 62
7
100
AcDbSpline
 70
8
 71
3
 72
8
 73
4
 74
0
 40
0
 40
0
 40
0
 40
0
 40
1
 40
1
 40
1
 40
1
 10
230.999950
 20
174.999630
 30
0.0
 10
224.924530
 20
174.999430
 30
0.0
 10
219.999380
 20
179.924590
 30
0.0
 10
219.999580
 20
186.000000
 30
0.0
  0
SPLINE
  5
16a
100
AcDbEntity
  8
Layer_1
 62
7
100
AcDbSpline
 70
8
 71
3
 72
8
 73
4
 74
0
 40
0
 40
0
 40
0
 40
0
 40
1
 40
1
 40
1
 40
1
 10
219.999580
 20
186.000000
 30
0.0
 10
219.999670
 20
192.075220
 30
0.0
 10
224.924730
 20
197.000040
 30
0.0
 10
230.999950
 20
196.999840
 30
0.0
  0
LINE
  5
16b
100
AcDbEntity
  8
Layer_1
 62
7
100
AcDbLine
 10
230.999950
 20
196.999840
 30
0.0
 11
230.999950
 21
196.999840
 31
0.0
  0
SPLINE
  5
16c
100
AcDbEntity
  8
Layer_1
 62
7
100
AcDbSpline
 70
8
 71
3
 72
8
 73
4
 74
0
 40
0
 40
0
 40
0
 40
0
 40
1
 40
1
 40
1
 40
1
 10
215.499600
 20
172.300060
 30
0.0
 10
216.494030
 20
172.300290
 30
0.0
 10
217.300230
 20
171.494080
 30
0.0
 10
217.300010
 20
170.499650
 30
0.0
  0
SPLINE
  5
16d
100
AcDbEntity
  8
Layer_1
 62
7
100
AcDbSpline
 70
8
 71
3
 72
8
 73
4
 74
0
 40
0
 40
0
 40
0
 40
0
 40
1
 40
1
 40
1
 40
1
 10
217.300010
 20
170.499650
 30
0.0
 10
217.299940
 20
169.505420
 30
0.0
 10
216.493830
 20
168.699540
 30
0.0
 10
215.499600
 20
168.699760
 30
0.0
  0
SPLINE
  5
16e
100
AcDbEntity
  8
Layer_1
 62
7
100
AcDbSpline
 70
8
 71
3
 72
8
 73
4
 74
0
 40
0
 40
0
 40
0
 40
0
 40
1
 40
1
 40
1
 40
1
 10
215.499600
 20
168.699760
 30
0.0
 10
214.505570
 20
168.699830
 30
0.0
 10
213.699770
 20
169.505620
 30
0.0
 10
213.699710
 20
170.499650
 30
0.0
  0
SPLINE
  5
16f
100
AcDbEntity
  8
Layer_1
 62
7
100
AcDbSpline
 70
8
 71
3
 72
8
 73
4
 74
0
 40
0
 40
0
 40
0
 40
0
 40
1
 40
1
 40
1
 40
1
 10
213.699710
 20
170.499650
 30
0.0
 10
213.699480
 20
171.493880
 30
0.0
 10
214.505370
 20
172.300000
 30
0.0
 10
215.499600
 20
172.300060
 30
0.0
  0
LINE
  5
170
100
AcDbEntity
  8
Layer_1
 62
7
100
AcDbLine
 10
215.499600
 20
172.300060
 30
0.0
 11
215.499600
 21
172.300060
 31
0.0
  0
SPLINE
  5
171
100
AcDbEntity
  8
Layer_1
 62
7
100
AcDbSpline
 70
8
 71
3
 72
8
 73
4
 74
0
 40
0
 40
0
 40
0
 40
0
 40
1
 40
1
 40
1
 40
1
 10
246.499790
 20
172.300060
 30
0.0
 10
247.494020
 20
172.300000
 30
0.0
 10
248.299900
 20
171.493880
 30
0.0
 10
248.299680
 20
170.499650
 30
0.0
  0
SPLINE
  5
172
100
AcDbEntity
  8
Layer_1
 62
7
100
AcDbSpline
 70
8
 71
3
 72
8
 73
4
 74
0
 40
0
 40
0
 40
0
 40
0
 40
1
 40
1
 40
1
 40
1
 10
248.299680
 20
170.499650
 30
0.0
 10
248.299620
 20
169.505620
 30
0.0
 10
247.493820
 20
168.699830
 30
0.0
 10
246.499790
 20
168.699760
 30
0.0
  0
SPLINE
  5
173
100
AcDbEntity
  8
Layer_1
 62
7
100
AcDbSpline
 70
8
 71
3
 72
8
 73
4
 74
0
 40
0
 40
0
 40
0
 40
0
 40
1
 40
1
 40
1
 40
1
 10
246.499790
 20
168.699760
 30
0.0
 10
245.505760
 20
168.699830
 30
0.0
 10
244.699960
 20
169.505620
 30
0.0
 10
244.699900
 20
170.499650
 30
0.0
  0
SPLINE
  5
174
100
AcDbEntity
  8
Layer_1
 62
7
100
AcDbSpline
 70
8
 71
3
 72
8
 73
4
 74
0
 40
0
 40
0
 40
0
 40
0
 40
1
 40
1
 40
1
 40
1
 10
244.699900
 20
170.499650
 30
0.0
 10
244.699670
 20
171.493870
 30
0.0
 10
245.505560
 20
172.300000
 30
0.0
 10
246.499790
 20
172.300060
 30
0.0
  0
LINE
  5
175
100
AcDbEntity
  8
Layer_1
 62
7
100
AcDbLine
 10
246.499790
 20
172.300060
 30
0.0
 11
246.499790
 21
172.300060
 31
0.0
  0
SPLINE
  5
176
100
AcDbEntity
  8
Layer_1
 62
7
100
AcDbSpline
 70
8
 71
3
 72
8
 73
4
 74
0
 40
0
 40
0
 40
0
 40
0
 40
1
 40
1
 40
1
 40
1
 10
298.999700
 20
216.999914
 30
0.0
 10
282.431375
 20
216.999765
 30
0.0
 10
269.000128
 20
203.568525
 30
0.0
 10
268.999970
 20
187.000200
 30
0.0
  0
SPLINE
  5
177
100
AcDbEntity
  8
Layer_1
 62
7
100
AcDbSpline
 70
8
 71
3
 72
8
 73
4
 74
0
 40
0
 40
0
 40
0
 40
0
 40
1
 40
1
 40
1
 40
1
 10
268.999970
 20
187.000200
 30
0.0
 10
268.999826
 20
170.431661
 30
0.0
 10
282.431161
 20
157.000089
 30
0.0
 10
298.999700
 20
156.999940
 30
0.0
  0
SPLINE
  5
178
100
AcDbEntity
  8
Layer_1
 62
7
100
AcDbSpline
 70
8
 71
3
 72
8
 73
4
 74
0
 40
0
 40
0
 40
0
 40
0
 40
1
 40
1
 40
1
 40
1
 10
298.999700
 20
156.999940
 30
0.0
 10
306.956280
 20
156.999879
 30
0.0
 10
314.586995
 20
160.160593
 30
0.0
 10
320.213144
 20
165.786747
 30
0.0
  0
SPLINE
  5
179
100
AcDbEntity
  8
Layer_1
 62
7
100
AcDbSpline
 70
8
 71
3
 72
8
 73
4
 74
0
 40
0
 40
0
 40
0
 40
0
 40
1
 40
1
 40
1
 40
1
 10
320.213144
 20
165.786747
 30
0.0
 10
325.839293
 20
171.412901
 30
0.0
 10
328.999999
 20
179.043620
 30
0.0
 10
328.999930
 20
187.000200
 30
0.0
  0
SPLINE
  5
17a
100
AcDbEntity
  8
Layer_1
 62
7
100
AcDbSpline
 70
8
 71
3
 72
8
 73
4
 74
0
 40
0
 40
0
 40
0
 40
0
 40
1
 40
1
 40
1
 40
1
 10
328.999930
 20
187.000200
 30
0.0
 10
328.999772
 20
203.568721
 30
0.0
 10
315.568221
 20
217.000041
 30
0.0
 10
298.999700
 20
216.999914
 30
0.0
  0
LINE
  5
17b
100
AcDbEntity
  8
Layer_1
 62
7
100
AcDbLine
 10
298.999700
 20
216.999914
 30
0.0
 11
298.999700
 21
216.999914
 31
0.0
  0
SPLINE
  5
17c
100
AcDbEntity
  8
Layer_1
 62
7
100
AcDbSpline
 70
8
 71
3
 72
8
 73
4
 74
0
 40
0
 40
0
 40
0
 40
0
 40
1
 40
1
 40
1
 40
1
 10
294.000000
 20
206.349914
 30
0.0
 10
294.000000
 20
206.349914
 30
0.0
 10
294.000000
 20
194.475200
 30
0.0
 10
294.000000
 20
194.475200
 30
0.0
  0
SPLINE
  5
17d
100
AcDbEntity
  8
Layer_1
 62
7
100
AcDbSpline
 70
8
 71
3
 72
8
 73
4
 74
0
 40
0
 40
0
 40
0
 40
0
 40
1
 40
1
 40
1
 40
1
 10
294.000000
 20
194.475200
 30
0.0
 10
293.019725
 20
193.820377
 30
0.0
 10
292.177646
 20
192.979348
 30
0.0
 10
291.521600
 20
191.999890
 30
0.0
  0
LINE
  5
17e
100
AcDbEntity
  8
Layer_1
 62
7
100
AcDbLine
 10
291.521600
 20
191.999890
 30
0.0
 11
279.660830
 21
191.999890
 31
0.0
  0
SPLINE
  5
17f
100
AcDbEntity
  8
Layer_1
 62
7
100
AcDbSpline
 70
8
 71
3
 72
8
 73
4
 74
0
 40
0
 40
0
 40
0
 40
0
 40
1
 40
1
 40
1
 40
1
 10
279.660830
 20
191.999890
 30
0.0
 10
281.479994
 20
199.032253
 30
0.0
 10
286.969016
 20
204.525429
 30
0.0
 10
294.000000
 20
206.349914
 30
0.0
  0
LINE
  5
180
100
AcDbEntity
  8
Layer_1
 62
7
100
AcDbLine
 10
294.000000
 20
206.349914
 30
0.0
 11
294.000000
 21
206.349914
 31
0.0
  0
SPLINE
  5
181
100
AcDbEntity
  8
Layer_1
 62
7
100
AcDbSpline
 70
8
 71
3
 72
8
 73
4
 74
0
 40
0
 40
0
 40
0
 40
0
 40
1
 40
1
 40
1
 40
1
 10
303.999900
 20
206.339614
 30
0.0
 10
311.032405
 20
204.520368
 30
0.0
 10
316.525623
 20
199.031119
 30
0.0
 10
318.349950
 20
191.999930
 30
0.0
  0
LINE
  5
182
100
AcDbEntity
  8
Layer_1
 62
7
100
AcDbLine
 10
318.349950
 20
191.999930
 30
0.0
 11
306.478310
 21
191.999930
 31
0.0
  0
SPLINE
  5
183
100
AcDbEntity
  8
Layer_1
 62
7
100
AcDbSpline
 70
8
 71
3
 72
8
 73
4
 74
0
 40
0
 40
0
 40
0
 40
0
 40
1
 40
1
 40
1
 40
1
 10
306.478310
 20
191.999930
 30
0.0
 10
306.478310
 20
191.999930
 30
0.0
 10
306.475310
 20
191.999930
 30
0.0
 10
306.475310
 20
191.999930
 30
0.0
  0
SPLINE
  5
184
100
AcDbEntity
  8
Layer_1
 62
7
100
AcDbSpline
 70
8
 71
3
 72
8
 73
4
 74
0
 40
0
 40
0
 40
0
 40
0
 40
1
 40
1
 40
1
 40
1
 10
306.475310
 20
191.999930
 30
0.0
 10
305.820487
 20
192.980205
 30
0.0
 10
304.979458
 20
193.822284
 30
0.0
 10
304.000000
 20
194.478330
 30
0.0
  0
LINE
  5
185
100
AcDbEntity
  8
Layer_1
 62
7
100
AcDbLine
 10
304.000000
 20
194.478330
 30
0.0
 11
303.999900
 21
206.339614
 31
0.0
  0
SPLINE
  5
186
100
AcDbEntity
  8
Layer_1
 62
7
100
AcDbSpline
 70
8
 71
3
 72
8
 73
4
 74
0
 40
0
 40
0
 40
0
 40
0
 40
1
 40
1
 40
1
 40
1
 10
298.999700
 20
189.454870
 30
0.0
 10
300.352748
 20
189.455060
 30
0.0
 10
301.449816
 20
188.358448
 30
0.0
 10
301.450190
 20
187.005400
 30
0.0
  0
SPLINE
  5
187
100
AcDbEntity
  8
Layer_1
 62
7
100
AcDbSpline
 70
8
 71
3
 72
8
 73
4
 74
0
 40
0
 40
0
 40
0
 40
0
 40
1
 40
1
 40
1
 40
1
 10
301.450190
 20
187.005400
 30
0.0
 10
301.449191
 20
186.233169
 30
0.0
 10
301.084187
 20
185.506600
 30
0.0
 10
300.465250
 20
185.044800
 30
0.0
  0
SPLINE
  5
188
100
AcDbEntity
  8
Layer_1
 62
7
100
AcDbSpline
 70
8
 71
3
 72
8
 73
4
 74
0
 40
0
 40
0
 40
0
 40
0
 40
1
 40
1
 40
1
 40
1
 10
300.465250
 20
185.044800
 30
0.0
 10
300.465250
 20
185.044800
 30
0.0
 10
297.535210
 20
185.044800
 30
0.0
 10
297.535210
 20
185.044800
 30
0.0
  0
SPLINE
  5
189
100
AcDbEntity
  8
Layer_1
 62
7
100
AcDbSpline
 70
8
 71
3
 72
8
 73
4
 74
0
 40
0
 40
0
 40
0
 40
0
 40
1
 40
1
 40
1
 40
1
 10
297.535210
 20
185.044800
 30
0.0
 10
296.916062
 20
185.506483
 30
0.0
 10
296.550841
 20
186.233070
 30
0.0
 10
296.549710
 20
187.005400
 30
0.0
  0
SPLINE
  5
18a
100
AcDbEntity
  8
Layer_1
 62
7
100
AcDbSpline
 70
8
 71
3
 72
8
 73
4
 74
0
 40
0
 40
0
 40
0
 40
0
 40
1
 40
1
 40
1
 40
1
 10
296.549710
 20
187.005400
 30
0.0
 10
296.550084
 20
188.358253
 30
0.0
 10
297.646847
 20
189.454783
 30
0.0
 10
298.999700
 20
189.454870
 30
0.0
  0
LINE
  5
18b
100
AcDbEntity
  8
Layer_1
 62
7
100
AcDbLine
 10
298.999700
 20
189.454870
 30
0.0
 11
298.999700
 21
189.454870
 31
0.0
  0
LINE
  5
18c
100
AcDbEntity
  8
Layer_1
 62
7
100
AcDbLine
 10
279.649980
 20
182.000010
 30
0.0
 11
291.521600
 21
182.000010
 31
0.0
  0
SPLINE
  5
18d
100
AcDbEntity
  8
Layer_1
 62
7
100
AcDbSpline
 70
8
 71
3
 72
8
 73
4
 74
0
 40
0
 40
0
 40
0
 40
0
 40
1
 40
1
 40
1
 40
1
 10
291.521600
 20
182.000010
 30
0.0
 10
291.521600
 20
182.000010
 30
0.0
 10
291.524600
 20
182.000010
 30
0.0
 10
291.524600
 20
182.000010
 30
0.0
  0
SPLINE
  5
18e
100
AcDbEntity
  8
Layer_1
 62
7
100
AcDbSpline
 70
8
 71
3
 72
8
 73
4
 74
0
 40
0
 40
0
 40
0
 40
0
 40
1
 40
1
 40
1
 40
1
 10
291.524600
 20
182.000010
 30
0.0
 10
292.179414
 20
181.019738
 30
0.0
 10
293.020433
 20
180.177659
 30
0.0
 10
293.999880
 20
179.521610
 30
0.0
  0
LINE
  5
18f
100
AcDbEntity
  8
Layer_1
 62
7
100
AcDbLine
 10
293.999880
 20
179.521610
 30
0.0
 11
293.999880
 21
167.660830
 31
0.0
  0
SPLINE
  5
190
100
AcDbEntity
  8
Layer_1
 62
7
100
AcDbSpline
 70
8
 71
3
 72
8
 73
4
 74
0
 40
0
 40
0
 40
0
 40
0
 40
1
 40
1
 40
1
 40
1
 10
293.999880
 20
167.660830
 30
0.0
 10
286.967562
 20
169.480035
 30
0.0
 10
281.474440
 20
174.969054
 30
0.0
 10
279.649980
 20
182.000010
 30
0.0
  0
LINE
  5
191
100
AcDbEntity
  8
Layer_1
 62
7
100
AcDbLine
 10
279.649980
 20
182.000010
 30
0.0
 11
279.649980
 21
182.000010
 31
0.0
  0
SPLINE
  5
192
100
AcDbEntity
  8
Layer_1
 62
7
100
AcDbSpline
 70
8
 71
3
 72
8
 73
4
 74
0
 40
0
 40
0
 40
0
 40
0
 40
1
 40
1
 40
1
 40
1
 10
306.478310
 20
182.000010
 30
0.0
 10
306.478310
 20
182.000010
 30
0.0
 10
318.339600
 20
182.000010
 30
0.0
 10
318.339600
 20
182.000010
 30
0.0
  0
SPLINE
  5
193
100
AcDbEntity
  8
Layer_1
 62
7
100
AcDbSpline
 70
8
 71
3
 72
8
 73
4
 74
0
 40
0
 40
0
 40
0
 40
0
 40
1
 40
1
 40
1
 40
1
 10
318.339600
 20
182.000010
 30
0.0
 10
316.520181
 20
174.967708
 30
0.0
 10
311.030956
 20
169.474728
 30
0.0
 10
303.999900
 20
167.650500
 30
0.0
  0
SPLINE
  5
194
100
AcDbEntity
  8
Layer_1
 62
7
100
AcDbSpline
 70
8
 71
3
 72
8
 73
4
 74
0
 40
0
 40
0
 40
0
 40
0
 40
1
 40
1
 40
1
 40
1
 10
303.999900
 20
167.650500
 30
0.0
 10
303.999900
 20
167.650500
 30
0.0
 10
303.999900
 20
179.524710
 30
0.0
 10
303.999900
 20
179.524710
 30
0.0
  0
SPLINE
  5
195
100
AcDbEntity
  8
Layer_1
 62
7
100
AcDbSpline
 70
8
 71
3
 72
8
 73
4
 74
0
 40
0
 40
0
 40
0
 40
0
 40
1
 40
1
 40
1
 40
1
 10
303.999900
 20
179.524710
 30
0.0
 10
304.980178
 20
180.179529
 30
0.0
 10
305.822260
 20
181.020555
 30
0.0
 10
306.478310
 20
182.000010
 30
0.0
  0
LINE
  5
196
100
AcDbEntity
  8
Layer_1
 62
7
100
AcDbLine
 10
306.478310
 20
182.000010
 30
0.0
 11
306.478310
 21
182.000010
 31
0.0
  0
LINE
  5
197
100
AcDbEntity
  8
Layer_1
 62
7
100
AcDbLine
 10
6.000290
 20
209.999863
 30
0.0
 11
6.000290
 21
199.999960
 31
0.0
  0
LINE
  5
198
100
AcDbEntity
  8
Layer_1
 62
7
100
AcDbLine
 10
6.000290
 20
199.999960
 30
0.0
 11
2.000000
 21
199.999960
 31
0.0
  0
LINE
  5
199
100
AcDbEntity
  8
Layer_1
 62
7
100
AcDbLine
 10
2.000000
 20
199.999960
 30
0.0
 11
2.000000
 21
179.999630
 31
0.0
  0
LINE
  5
19a
100
AcDbEntity
  8
Layer_1
 62
7
100
AcDbLine
 10
2.000000
 20
179.999630
 30
0.0
 11
6.000290
 21
179.999630
 31
0.0
  0
LINE
  5
19b
100
AcDbEntity
  8
Layer_1
 62
7
100
AcDbLine
 10
6.000290
 20
179.999630
 30
0.0
 11
6.000290
 21
169.999720
 31
0.0
  0
LINE
  5
19c
100
AcDbEntity
  8
Layer_1
 62
7
100
AcDbLine
 10
6.000290
 20
169.999720
 30
0.0
 11
2.000000
 21
169.999720
 31
0.0
  0
LINE
  5
19d
100
AcDbEntity
  8
Layer_1
 62
7
100
AcDbLine
 10
2.000000
 20
169.999720
 30
0.0
 11
2.000000
 21
149.999910
 31
0.0
  0
LINE
  5
19e
100
AcDbEntity
  8
Layer_1
 62
7
100
AcDbLine
 10
2.000000
 20
149.999910
 30
0.0
 11
6.000290
 21
149.999910
 31
0.0
  0
LINE
  5
19f
100
AcDbEntity
  8
Layer_1
 62
7
100
AcDbLine
 10
6.000290
 20
149.999910
 30
0.0
 11
6.000290
 21
140.000000
 31
0.0
  0
LINE
  5
1a0
100
AcDbEntity
  8
Layer_1
 62
7
100
AcDbLine
 10
6.000290
 20
140.000000
 30
0.0
 11
117.999660
 21
140.000000
 31
0.0
  0
LINE
  5
1a1
100
AcDbEntity
  8
Layer_1
 62
7
100
AcDbLine
 10
117.999660
 20
140.000000
 30
0.0
 11
117.999660
 21
149.999910
 31
0.0
  0
LINE
  5
1a2
100
AcDbEntity
  8
Layer_1
 62
7
100
AcDbLine
 10
117.999660
 20
149.999910
 30
0.0
 11
121.999920
 21
149.999910
 31
0.0
  0
LINE
  5
1a3
100
AcDbEntity
  8
Layer_1
 62
7
100
AcDbLine
 10
121.999920
 20
149.999910
 30
0.0
 11
121.999920
 21
169.999720
 31
0.0
  0
LINE
  5
1a4
100
AcDbEntity
  8
Layer_1
 62
7
100
AcDbLine
 10
121.999920
 20
169.999720
 30
0.0
 11
117.999660
 21
169.999720
 31
0.0
  0
LINE
  5
1a5
100
AcDbEntity
  8
Layer_1
 62
7
100
AcDbLine
 10
117.999660
 20
169.999720
 30
0.0
 11
117.999660
 21
179.999630
 31
0.0
  0
LINE
  5
1a6
100
AcDbEntity
  8
Layer_1
 62
7
100
AcDbLine
 10
117.999660
 20
179.999630
 30
0.0
 11
121.999920
 21
179.999630
 31
0.0
  0
LINE
  5
1a7
100
AcDbEntity
  8
Layer_1
 62
7
100
AcDbLine
 10
121.999920
 20
179.999630
 30
0.0
 11
121.999920
 21
199.999960
 31
0.0
  0
LINE
  5
1a8
100
AcDbEntity
  8
Layer_1
 62
7
100
AcDbLine
 10
121.999920
 20
199.999960
 30
0.0
 11
117.999660
 21
199.999960
 31
0.0
  0
LINE
  5
1a9
100
AcDbEntity
  8
Layer_1
 62
7
100
AcDbLine
 10
117.999660
 20
199.999960
 30
0.0
 11
117.999660
 21
209.999863
 31
0.0
  0
LINE
  5
1aa
100
AcDbEntity
  8
Layer_1
 62
7
100
AcDbLine
 10
117.999660
 20
209.999863
 30
0.0
 11
6.000290
 21
209.999863
 31
0.0
  0
LINE
  5
1ab
100
AcDbEntity
  8
Layer_1
 62
7
100
AcDbLine
 10
56.000320
 20
189.999540
 30
0.0
 11
68.000130
 21
189.999540
 31
0.0
  0
LINE
  5
1ac
100
AcDbEntity
  8
Layer_1
 62
7
100
AcDbLine
 10
68.000130
 20
189.999540
 30
0.0
 11
68.000130
 21
183.999380
 31
0.0
  0
LINE
  5
1ad
100
AcDbEntity
  8
Layer_1
 62
7
100
AcDbLine
 10
68.000130
 20
183.999380
 30
0.0
 11
56.000320
 21
183.999380
 31
0.0
  0
LINE
  5
1ae
100
AcDbEntity
  8
Layer_1
 62
7
100
AcDbLine
 10
56.000320
 20
183.999380
 30
0.0
 11
56.000320
 21
189.999540
 31
0.0
  0
LINE
  5
1af
100
AcDbEntity
  8
Layer_1
 62
7
100
AcDbLine
 10
26.000090
 20
177.000330
 30
0.0
 11
45.999920
 21
177.000330
 31
0.0
  0
LINE
  5
1b0
100
AcDbEntity
  8
Layer_1
 62
7
100
AcDbLine
 10
45.999920
 20
177.000330
 30
0.0
 11
45.999920
 21
173.000060
 31
0.0
  0
LINE
  5
1b1
100
AcDbEntity
  8
Layer_1
 62
7
100
AcDbLine
 10
45.999920
 20
173.000060
 30
0.0
 11
26.000090
 21
173.000060
 31
0.0
  0
LINE
  5
1b2
100
AcDbEntity
  8
Layer_1
 62
7
100
AcDbLine
 10
26.000090
 20
173.000060
 30
0.0
 11
26.000090
 21
177.000330
 31
0.0
  0
LINE
  5
1b3
100
AcDbEntity
  8
Layer_1
 62
7
100
AcDbLine
 10
78.000030
 20
176.999810
 30
0.0
 11
97.999830
 21
176.999810
 31
0.0
  0
LINE
  5
1b4
100
AcDbEntity
  8
Layer_1
 62
7
100
AcDbLine
 10
97.999830
 20
176.999810
 30
0.0
 11
97.999830
 21
173.000060
 31
0.0
  0
LINE
  5
1b5
100
AcDbEntity
  8
Layer_1
 62
7
100
AcDbLine
 10
97.999830
 20
173.000060
 30
0.0
 11
78.000030
 21
173.000060
 31
0.0
  0
LINE
  5
1b6
100
AcDbEntity
  8
Layer_1
 62
7
100
AcDbLine
 10
78.000030
 20
173.000060
 30
0.0
 11
78.000030
 21
176.999810
 31
0.0
  0
LINE
  5
1b7
100
AcDbEntity
  8
Layer_1
 62
7
100
AcDbLine
 10
56.000320
 20
165.999450
 30
0.0
 11
68.000130
 21
165.999450
 31
0.0
  0
LINE
  5
1b8
100
AcDbEntity
  8
Layer_1
 62
7
100
AcDbLine
 10
68.000130
 20
165.999450
 30
0.0
 11
68.000130
 21
159.999820
 31
0.0
  0
LINE
  5
1b9
100
AcDbEntity
  8
Layer_1
 62
7
100
AcDbLine
 10
68.000130
 20
159.999820
 30
0.0
 11
56.000320
 21
159.999820
 31
0.0
  0
LINE
  5
1ba
100
AcDbEntity
  8
Layer_1
 62
7
100
AcDbLine
 10
56.000320
 20
159.999820
 30
0.0
 11
56.000320
 21
165.999450
 31
0.0
  0
LINE
  5
1bb
100
AcDbEntity
  8
Layer_1
 62
7
100
AcDbLine
 10
270.000000
 20
396.000040
 30
0.0
 11
270.000000
 21
375.999720
 31
0.0
  0
LINE
  5
1bc
100
AcDbEntity
  8
Layer_1
 62
7
100
AcDbLine
 10
270.000000
 20
375.999720
 30
0.0
 11
274.000270
 21
375.999720
 31
0.0
  0
LINE
  5
1bd
100
AcDbEntity
  8
Layer_1
 62
7
100
AcDbLine
 10
274.000270
 20
375.999720
 30
0.0
 11
274.000270
 21
365.999810
 31
0.0
  0
LINE
  5
1be
100
AcDbEntity
  8
Layer_1
 62
7
100
AcDbLine
 10
274.000270
 20
365.999810
 30
0.0
 11
270.000000
 21
365.999810
 31
0.0
  0
LINE
  5
1bf
100
AcDbEntity
  8
Layer_1
 62
7
100
AcDbLine
 10
270.000000
 20
365.999810
 30
0.0
 11
270.000000
 21
346.000000
 31
0.0
  0
LINE
  5
1c0
100
AcDbEntity
  8
Layer_1
 62
7
100
AcDbLine
 10
270.000000
 20
346.000000
 30
0.0
 11
274.000270
 21
346.000000
 31
0.0
  0
LINE
  5
1c1
100
AcDbEntity
  8
Layer_1
 62
7
100
AcDbLine
 10
274.000270
 20
346.000000
 30
0.0
 11
385.999640
 21
346.000000
 31
0.0
  0
LINE
  5
1c2
100
AcDbEntity
  8
Layer_1
 62
7
100
AcDbLine
 10
385.999640
 20
346.000000
 30
0.0
 11
389.999910
 21
346.000000
 31
0.0
  0
LINE
  5
1c3
100
AcDbEntity
  8
Layer_1
 62
7
100
AcDbLine
 10
389.999910
 20
346.000000
 30
0.0
 11
389.999910
 21
365.999810
 31
0.0
  0
LINE
  5
1c4
100
AcDbEntity
  8
Layer_1
 62
7
100
AcDbLine
 10
389.999910
 20
365.999810
 30
0.0
 11
385.999640
 21
365.999810
 31
0.0
  0
LINE
  5
1c5
100
AcDbEntity
  8
Layer_1
 62
7
100
AcDbLine
 10
385.999640
 20
365.999810
 30
0.0
 11
385.999640
 21
375.999720
 31
0.0
  0
LINE
  5
1c6
100
AcDbEntity
  8
Layer_1
 62
7
100
AcDbLine
 10
385.999640
 20
375.999720
 30
0.0
 11
389.999910
 21
375.999720
 31
0.0
  0
LINE
  5
1c7
100
AcDbEntity
  8
Layer_1
 62
7
100
AcDbLine
 10
389.999910
 20
375.999720
 30
0.0
 11
389.999910
 21
396.000040
 31
0.0
  0
LINE
  5
1c8
100
AcDbEntity
  8
Layer_1
 62
7
100
AcDbLine
 10
389.999910
 20
396.000040
 30
0.0
 11
385.999640
 21
396.000040
 31
0.0
  0
LINE
  5
1c9
100
AcDbEntity
  8
Layer_1
 62
7
100
AcDbLine
 10
385.999640
 20
396.000040
 30
0.0
 11
274.000270
 21
396.000040
 31
0.0
  0
LINE
  5
1ca
100
AcDbEntity
  8
Layer_1
 62
7
100
AcDbLine
 10
274.000270
 20
396.000040
 30
0.0
 11
270.000000
 21
396.000040
 31
0.0
  0
LINE
  5
1cb
100
AcDbEntity
  8
Layer_1
 62
7
100
AcDbLine
 10
294.000080
 20
373.000420
 30
0.0
 11
313.999900
 21
373.000420
 31
0.0
  0
LINE
  5
1cc
100
AcDbEntity
  8
Layer_1
 62
7
100
AcDbLine
 10
313.999900
 20
373.000420
 30
0.0
 11
313.999900
 21
369.000150
 31
0.0
  0
LINE
  5
1cd
100
AcDbEntity
  8
Layer_1
 62
7
100
AcDbLine
 10
313.999900
 20
369.000150
 30
0.0
 11
294.000080
 21
369.000150
 31
0.0
  0
LINE
  5
1ce
100
AcDbEntity
  8
Layer_1
 62
7
100
AcDbLine
 10
294.000080
 20
369.000150
 30
0.0
 11
294.000080
 21
373.000420
 31
0.0
  0
LINE
  5
1cf
100
AcDbEntity
  8
Layer_1
 62
7
100
AcDbLine
 10
346.000010
 20
372.999900
 30
0.0
 11
365.999820
 21
372.999900
 31
0.0
  0
LINE
  5
1d0
100
AcDbEntity
  8
Layer_1
 62
7
100
AcDbLine
 10
365.999820
 20
372.999900
 30
0.0
 11
365.999820
 21
369.000150
 31
0.0
  0
LINE
  5
1d1
100
AcDbEntity
  8
Layer_1
 62
7
100
AcDbLine
 10
365.999820
 20
369.000150
 30
0.0
 11
346.000010
 21
369.000150
 31
0.0
  0
LINE
  5
1d2
100
AcDbEntity
  8
Layer_1
 62
7
100
AcDbLine
 10
346.000010
 20
369.000150
 30
0.0
 11
346.000010
 21
372.999900
 31
0.0
  0
SPLINE
  5
1d3
100
AcDbEntity
  8
Layer_1
 62
7
100
AcDbSpline
 70
8
 71
3
 72
8
 73
4
 74
0
 40
0
 40
0
 40
0
 40
0
 40
1
 40
1
 40
1
 40
1
 10
133.999920
 20
396.000094
 30
0.0
 10
128.459910
 20
396.000094
 30
0.0
 10
124.000000
 20
391.540187
 30
0.0
 10
124.000000
 20
386.000187
 30
0.0
  0
LINE
  5
1d4
100
AcDbEntity
  8
Layer_1
 62
7
100
AcDbLine
 10
124.000000
 20
386.000187
 30
0.0
 11
124.000000
 21
226.000137
 31
0.0
  0
LINE
  5
1d5
100
AcDbEntity
  8
Layer_1
 62
7
100
AcDbLine
 10
124.000000
 20
226.000137
 30
0.0
 11
124.000000
 21
225.999619
 31
0.0
  0
LINE
  5
1d6
100
AcDbEntity
  8
Layer_1
 62
7
100
AcDbLine
 10
124.000000
 20
225.999619
 30
0.0
 11
124.000000
 21
195.999390
 31
0.0
  0
SPLINE
  5
1d7
100
AcDbEntity
  8
Layer_1
 62
7
100
AcDbSpline
 70
8
 71
3
 72
8
 73
4
 74
0
 40
0
 40
0
 40
0
 40
0
 40
1
 40
1
 40
1
 40
1
 10
124.000000
 20
195.999390
 30
0.0
 10
124.000000
 20
176.609390
 30
0.0
 10
139.609950
 20
155.999760
 30
0.0
 10
158.999940
 20
155.999760
 30
0.0
  0
SPLINE
  5
1d8
100
AcDbEntity
  8
Layer_1
 62
7
100
AcDbSpline
 70
8
 71
3
 72
8
 73
4
 74
0
 40
0
 40
0
 40
0
 40
0
 40
1
 40
1
 40
1
 40
1
 10
158.999940
 20
155.999760
 30
0.0
 10
178.389940
 20
155.999760
 30
0.0
 10
193.999870
 20
176.609390
 30
0.0
 10
193.999870
 20
195.999390
 30
0.0
  0
LINE
  5
1d9
100
AcDbEntity
  8
Layer_1
 62
7
100
AcDbLine
 10
193.999870
 20
195.999390
 30
0.0
 11
193.999870
 21
225.999619
 31
0.0
  0
LINE
  5
1da
100
AcDbEntity
  8
Layer_1
 62
7
100
AcDbLine
 10
193.999870
 20
225.999619
 30
0.0
 11
193.999870
 21
226.000137
 31
0.0
  0
LINE
  5
1db
100
AcDbEntity
  8
Layer_1
 62
7
100
AcDbLine
 10
193.999870
 20
226.000137
 30
0.0
 11
193.999870
 21
386.000187
 31
0.0
  0
SPLINE
  5
1dc
100
AcDbEntity
  8
Layer_1
 62
7
100
AcDbSpline
 70
8
 71
3
 72
8
 73
4
 74
0
 40
0
 40
0
 40
0
 40
0
 40
1
 40
1
 40
1
 40
1
 10
193.999870
 20
386.000187
 30
0.0
 10
193.999870
 20
391.540187
 30
0.0
 10
189.539970
 20
396.000094
 30
0.0
 10
183.999960
 20
396.000094
 30
0.0
  0
LINE
  5
1dd
100
AcDbEntity
  8
Layer_1
 62
7
100
AcDbLine
 10
183.999960
 20
396.000094
 30
0.0
 11
183.999960
 21
391.999821
 31
0.0
  0
LINE
  5
1de
100
AcDbEntity
  8
Layer_1
 62
7
100
AcDbLine
 10
183.999960
 20
391.999821
 30
0.0
 11
164.000150
 21
391.999821
 31
0.0
  0
LINE
  5
1df
100
AcDbEntity
  8
Layer_1
 62
7
100
AcDbLine
 10
164.000150
 20
391.999821
 30
0.0
 11
164.000150
 21
396.000094
 31
0.0
  0
LINE
  5
1e0
100
AcDbEntity
  8
Layer_1
 62
7
100
AcDbLine
 10
164.000150
 20
396.000094
 30
0.0
 11
154.000250
 21
396.000094
 31
0.0
  0
LINE
  5
1e1
100
AcDbEntity
  8
Layer_1
 62
7
100
AcDbLine
 10
154.000250
 20
396.000094
 30
0.0
 11
154.000250
 21
391.999821
 31
0.0
  0
LINE
  5
1e2
100
AcDbEntity
  8
Layer_1
 62
7
100
AcDbLine
 10
154.000250
 20
391.999821
 30
0.0
 11
133.999920
 21
391.999821
 31
0.0
  0
LINE
  5
1e3
100
AcDbEntity
  8
Layer_1
 62
7
100
AcDbLine
 10
133.999920
 20
391.999821
 30
0.0
 11
133.999920
 21
396.000094
 31
0.0
  0
LINE
  5
1e4
100
AcDbEntity
  8
Layer_1
 62
7
100
AcDbLine
 10
157.000060
 20
375.999764
 30
0.0
 11
160.999820
 21
375.999764
 31
0.0
  0
LINE
  5
1e5
100
AcDbEntity
  8
Layer_1
 62
7
100
AcDbLine
 10
160.999820
 20
375.999764
 30
0.0
 11
160.999820
 21
355.999952
 31
0.0
  0
LINE
  5
1e6
100
AcDbEntity
  8
Layer_1
 62
7
100
AcDbLine
 10
160.999820
 20
355.999952
 30
0.0
 11
157.000060
 21
355.999952
 31
0.0
  0
LINE
  5
1e7
100
AcDbEntity
  8
Layer_1
 62
7
100
AcDbLine
 10
157.000060
 20
355.999952
 30
0.0
 11
157.000060
 21
375.999764
 31
0.0
  0
LINE
  5
1e8
100
AcDbEntity
  8
Layer_1
 62
7
100
AcDbLine
 10
157.000060
 20
255.999855
 30
0.0
 11
160.999820
 21
255.999855
 31
0.0
  0
LINE
  5
1e9
100
AcDbEntity
  8
Layer_1
 62
7
100
AcDbLine
 10
160.999820
 20
255.999855
 30
0.0
 11
160.999820
 21
236.000043
 31
0.0
  0
LINE
  5
1ea
100
AcDbEntity
  8
Layer_1
 62
7
100
AcDbLine
 10
160.999820
 20
236.000043
 30
0.0
 11
157.000060
 21
236.000043
 31
0.0
  0
LINE
  5
1eb
100
AcDbEntity
  8
Layer_1
 62
7
100
AcDbLine
 10
157.000060
 20
236.000043
 30
0.0
 11
157.000060
 21
255.999855
 31
0.0
  0
LINE
  5
1ec
100
AcDbEntity
  8
Layer_1
 62
7
100
AcDbLine
 10
133.999920
 20
215.999713
 30
0.0
 11
154.000250
 21
215.999713
 31
0.0
  0
LINE
  5
1ed
100
AcDbEntity
  8
Layer_1
 62
7
100
AcDbLine
 10
154.000250
 20
215.999713
 30
0.0
 11
154.000250
 21
211.999957
 31
0.0
  0
LINE
  5
1ee
100
AcDbEntity
  8
Layer_1
 62
7
100
AcDbLine
 10
154.000250
 20
211.999957
 30
0.0
 11
133.999920
 21
211.999957
 31
0.0
  0
LINE
  5
1ef
100
AcDbEntity
  8
Layer_1
 62
7
100
AcDbLine
 10
133.999920
 20
211.999957
 30
0.0
 11
133.999920
 21
215.999713
 31
0.0
  0
LINE
  5
1f0
100
AcDbEntity
  8
Layer_1
 62
7
100
AcDbLine
 10
164.000150
 20
215.999713
 30
0.0
 11
183.999960
 21
215.999713
 31
0.0
  0
LINE
  5
1f1
100
AcDbEntity
  8
Layer_1
 62
7
100
AcDbLine
 10
183.999960
 20
215.999713
 30
0.0
 11
183.999960
 21
211.999957
 31
0.0
  0
LINE
  5
1f2
100
AcDbEntity
  8
Layer_1
 62
7
100
AcDbLine
 10
183.999960
 20
211.999957
 30
0.0
 11
164.000150
 21
211.999957
 31
0.0
  0
LINE
  5
1f3
100
AcDbEntity
  8
Layer_1
 62
7
100
AcDbLine
 10
164.000150
 20
211.999957
 30
0.0
 11
164.000150
 21
215.999713
 31
0.0
  0
SPLINE
  5
1f4
100
AcDbEntity
  8
Layer_1
 62
7
100
AcDbSpline
 70
8
 71
3
 72
8
 73
4
 74
0
 40
0
 40
0
 40
0
 40
0
 40
1
 40
1
 40
1
 40
1
 10
143.499590
 20
203.299713
 30
0.0
 10
144.493820
 20
203.299938
 30
0.0
 10
145.299940
 20
202.494050
 30
0.0
 10
145.300000
 20
201.499820
 30
0.0
  0
SPLINE
  5
1f5
100
AcDbEntity
  8
Layer_1
 62
7
100
AcDbSpline
 70
8
 71
3
 72
8
 73
4
 74
0
 40
0
 40
0
 40
0
 40
0
 40
1
 40
1
 40
1
 40
1
 10
145.300000
 20
201.499820
 30
0.0
 10
145.299940
 20
200.505590
 30
0.0
 10
144.493820
 20
199.699710
 30
0.0
 10
143.499590
 20
199.699930
 30
0.0
  0
SPLINE
  5
1f6
100
AcDbEntity
  8
Layer_1
 62
7
100
AcDbSpline
 70
8
 71
3
 72
8
 73
4
 74
0
 40
0
 40
0
 40
0
 40
0
 40
1
 40
1
 40
1
 40
1
 10
143.499590
 20
199.699930
 30
0.0
 10
142.505570
 20
199.699990
 30
0.0
 10
141.699770
 20
200.505790
 30
0.0
 10
141.699700
 20
201.499820
 30
0.0
  0
SPLINE
  5
1f7
100
AcDbEntity
  8
Layer_1
 62
7
100
AcDbSpline
 70
8
 71
3
 72
8
 73
4
 74
0
 40
0
 40
0
 40
0
 40
0
 40
1
 40
1
 40
1
 40
1
 10
141.699700
 20
201.499820
 30
0.0
 10
141.699770
 20
202.493850
 30
0.0
 10
142.505570
 20
203.299652
 30
0.0
 10
143.499590
 20
203.299713
 30
0.0
  0
LINE
  5
1f8
100
AcDbEntity
  8
Layer_1
 62
7
100
AcDbLine
 10
143.499590
 20
203.299713
 30
0.0
 11
143.499590
 21
203.299713
 31
0.0
  0
SPLINE
  5
1f9
100
AcDbEntity
  8
Layer_1
 62
7
100
AcDbSpline
 70
8
 71
3
 72
8
 73
4
 74
0
 40
0
 40
0
 40
0
 40
0
 40
1
 40
1
 40
1
 40
1
 10
174.499770
 20
203.299713
 30
0.0
 10
175.493800
 20
203.299652
 30
0.0
 10
176.299600
 20
202.493850
 30
0.0
 10
176.299660
 20
201.499820
 30
0.0
  0
SPLINE
  5
1fa
100
AcDbEntity
  8
Layer_1
 62
7
100
AcDbSpline
 70
8
 71
3
 72
8
 73
4
 74
0
 40
0
 40
0
 40
0
 40
0
 40
1
 40
1
 40
1
 40
1
 10
176.299660
 20
201.499820
 30
0.0
 10
176.299600
 20
200.505790
 30
0.0
 10
175.493790
 20
199.699990
 30
0.0
 10
174.499770
 20
199.699930
 30
0.0
  0
SPLINE
  5
1fb
100
AcDbEntity
  8
Layer_1
 62
7
100
AcDbSpline
 70
8
 71
3
 72
8
 73
4
 74
0
 40
0
 40
0
 40
0
 40
0
 40
1
 40
1
 40
1
 40
1
 10
174.499770
 20
199.699930
 30
0.0
 10
173.505740
 20
199.699990
 30
0.0
 10
172.699940
 20
200.505790
 30
0.0
 10
172.699880
 20
201.499820
 30
0.0
  0
SPLINE
  5
1fc
100
AcDbEntity
  8
Layer_1
 62
7
100
AcDbSpline
 70
8
 71
3
 72
8
 73
4
 74
0
 40
0
 40
0
 40
0
 40
0
 40
1
 40
1
 40
1
 40
1
 10
172.699880
 20
201.499820
 30
0.0
 10
172.699940
 20
202.493850
 30
0.0
 10
173.505740
 20
203.299652
 30
0.0
 10
174.499770
 20
203.299713
 30
0.0
  0
LINE
  5
1fd
100
AcDbEntity
  8
Layer_1
 62
7
100
AcDbLine
 10
174.499770
 20
203.299713
 30
0.0
 11
174.499770
 21
203.299713
 31
0.0
  0
SPLINE
  5
1fe
100
AcDbEntity
  8
Layer_1
 62
7
100
AcDbSpline
 70
8
 71
3
 72
8
 73
4
 74
0
 40
0
 40
0
 40
0
 40
0
 40
1
 40
1
 40
1
 40
1
 10
158.999940
 20
196.999840
 30
0.0
 10
165.074950
 20
196.999760
 30
0.0
 10
169.999700
 20
192.075000
 30
0.0
 10
169.999790
 20
186.000000
 30
0.0
  0
SPLINE
  5
1ff
100
AcDbEntity
  8
Layer_1
 62
7
100
AcDbSpline
 70
8
 71
3
 72
8
 73
4
 74
0
 40
0
 40
0
 40
0
 40
0
 40
1
 40
1
 40
1
 40
1
 10
169.999790
 20
186.000000
 30
0.0
 10
169.999990
 20
179.924780
 30
0.0
 10
165.075150
 20
174.999710
 30
0.0
 10
158.999940
 20
174.999630
 30
0.0
  0
SPLINE
  5
200
100
AcDbEntity
  8
Layer_1
 62
7
100
AcDbSpline
 70
8
 71
3
 72
8
 73
4
 74
0
 40
0
 40
0
 40
0
 40
0
 40
1
 40
1
 40
1
 40
1
 10
158.999940
 20
174.999630
 30
0.0
 10
152.924520
 20
174.999430
 30
0.0
 10
147.999380
 20
179.924590
 30
0.0
 10
147.999580
 20
186.000000
 30
0.0
  0
SPLINE
  5
201
100
AcDbEntity
  8
Layer_1
 62
7
100
AcDbSpline
 70
8
 71
3
 72
8
 73
4
 74
0
 40
0
 40
0
 40
0
 40
0
 40
1
 40
1
 40
1
 40
1
 10
147.999580
 20
186.000000
 30
0.0
 10
147.999660
 20
192.075220
 30
0.0
 10
152.924730
 20
197.000040
 30
0.0
 10
158.999940
 20
196.999840
 30
0.0
  0
LINE
  5
202
100
AcDbEntity
  8
Layer_1
 62
7
100
AcDbLine
 10
158.999940
 20
196.999840
 30
0.0
 11
158.999940
 21
196.999840
 31
0.0
  0
SPLINE
  5
203
100
AcDbEntity
  8
Layer_1
 62
7
100
AcDbSpline
 70
8
 71
3
 72
8
 73
4
 74
0
 40
0
 40
0
 40
0
 40
0
 40
1
 40
1
 40
1
 40
1
 10
143.499590
 20
172.300060
 30
0.0
 10
144.494030
 20
172.300290
 30
0.0
 10
145.300230
 20
171.494080
 30
0.0
 10
145.300000
 20
170.499650
 30
0.0
  0
SPLINE
  5
204
100
AcDbEntity
  8
Layer_1
 62
7
100
AcDbSpline
 70
8
 71
3
 72
8
 73
4
 74
0
 40
0
 40
0
 40
0
 40
0
 40
1
 40
1
 40
1
 40
1
 10
145.300000
 20
170.499650
 30
0.0
 10
145.299940
 20
169.505420
 30
0.0
 10
144.493820
 20
168.699540
 30
0.0
 10
143.499590
 20
168.699760
 30
0.0
  0
SPLINE
  5
205
100
AcDbEntity
  8
Layer_1
 62
7
100
AcDbSpline
 70
8
 71
3
 72
8
 73
4
 74
0
 40
0
 40
0
 40
0
 40
0
 40
1
 40
1
 40
1
 40
1
 10
143.499590
 20
168.699760
 30
0.0
 10
142.505570
 20
168.699830
 30
0.0
 10
141.699770
 20
169.505620
 30
0.0
 10
141.699700
 20
170.499650
 30
0.0
  0
SPLINE
  5
206
100
AcDbEntity
  8
Layer_1
 62
7
100
AcDbSpline
 70
8
 71
3
 72
8
 73
4
 74
0
 40
0
 40
0
 40
0
 40
0
 40
1
 40
1
 40
1
 40
1
 10
141.699700
 20
170.499650
 30
0.0
 10
141.699480
 20
171.493880
 30
0.0
 10
142.505360
 20
172.300000
 30
0.0
 10
143.499590
 20
172.300060
 30
0.0
  0
LINE
  5
207
100
AcDbEntity
  8
Layer_1
 62
7
100
AcDbLine
 10
143.499590
 20
172.300060
 30
0.0
 11
143.499590
 21
172.300060
 31
0.0
  0
SPLINE
  5
208
100
AcDbEntity
  8
Layer_1
 62
7
100
AcDbSpline
 70
8
 71
3
 72
8
 73
4
 74
0
 40
0
 40
0
 40
0
 40
0
 40
1
 40
1
 40
1
 40
1
 10
174.499770
 20
172.300060
 30
0.0
 10
175.494000
 20
172.300000
 30
0.0
 10
176.299880
 20
171.493880
 30
0.0
 10
176.299660
 20
170.499650
 30
0.0
  0
SPLINE
  5
209
100
AcDbEntity
  8
Layer_1
 62
7
100
AcDbSpline
 70
8
 71
3
 72
8
 73
4
 74
0
 40
0
 40
0
 40
0
 40
0
 40
1
 40
1
 40
1
 40
1
 10
176.299660
 20
170.499650
 30
0.0
 10
176.299600
 20
169.505620
 30
0.0
 10
175.493800
 20
168.699830
 30
0.0
 10
174.499770
 20
168.699760
 30
0.0
  0
SPLINE
  5
20a
100
AcDbEntity
  8
Layer_1
 62
7
100
AcDbSpline
 70
8
 71
3
 72
8
 73
4
 74
0
 40
0
 40
0
 40
0
 40
0
 40
1
 40
1
 40
1
 40
1
 10
174.499770
 20
168.699760
 30
0.0
 10
173.505740
 20
168.699830
 30
0.0
 10
172.699940
 20
169.505620
 30
0.0
 10
172.699880
 20
170.499650
 30
0.0
  0
SPLINE
  5
20b
100
AcDbEntity
  8
Layer_1
 62
7
100
AcDbSpline
 70
8
 71
3
 72
8
 73
4
 74
0
 40
0
 40
0
 40
0
 40
0
 40
1
 40
1
 40
1
 40
1
 10
172.699880
 20
170.499650
 30
0.0
 10
172.699650
 20
171.493870
 30
0.0
 10
173.505540
 20
172.300000
 30
0.0
 10
174.499770
 20
172.300060
 30
0.0
  0
LINE
  5
20c
100
AcDbEntity
  8
Layer_1
 62
7
100
AcDbLine
 10
174.499770
 20
172.300060
 30
0.0
 11
174.499770
 21
172.300060
 31
0.0
  0
SPLINE
  5
20d
100
AcDbEntity
  8
Layer_1
 62
7
100
AcDbSpline
 70
8
 71
3
 72
8
 73
4
 74
0
 40
0
 40
0
 40
0
 40
0
 40
1
 40
1
 40
1
 40
1
 10
299.000180
 20
344.000346
 30
0.0
 10
290.778318
 20
344.000394
 30
0.0
 10
282.893195
 20
340.734259
 30
0.0
 10
277.079509
 20
334.920476
 30
0.0
  0
SPLINE
  5
20e
100
AcDbEntity
  8
Layer_1
 62
7
100
AcDbSpline
 70
8
 71
3
 72
8
 73
4
 74
0
 40
0
 40
0
 40
0
 40
0
 40
1
 40
1
 40
1
 40
1
 10
277.079509
 20
334.920476
 30
0.0
 10
271.265822
 20
329.106694
 30
0.0
 10
267.999816
 20
321.221518
 30
0.0
 10
268.000000
 20
312.999656
 30
0.0
  0
SPLINE
  5
20f
100
AcDbEntity
  8
Layer_1
 62
7
100
AcDbSpline
 70
8
 71
3
 72
8
 73
4
 74
0
 40
0
 40
0
 40
0
 40
0
 40
1
 40
1
 40
1
 40
1
 10
268.000000
 20
312.999656
 30
0.0
 10
268.000189
 20
295.878892
 30
0.0
 10
281.879416
 20
281.999899
 30
0.0
 10
299.000180
 20
282.000000
 30
0.0
  0
SPLINE
  5
210
100
AcDbEntity
  8
Layer_1
 62
7
100
AcDbSpline
 70
8
 71
3
 72
8
 73
4
 74
0
 40
0
 40
0
 40
0
 40
0
 40
1
 40
1
 40
1
 40
1
 10
299.000180
 20
282.000000
 30
0.0
 10
316.120948
 20
281.999894
 30
0.0
 10
330.000181
 20
295.878888
 30
0.0
 10
330.000370
 20
312.999656
 30
0.0
  0
SPLINE
  5
211
100
AcDbEntity
  8
Layer_1
 62
7
100
AcDbSpline
 70
8
 71
3
 72
8
 73
4
 74
0
 40
0
 40
0
 40
0
 40
0
 40
1
 40
1
 40
1
 40
1
 10
330.000370
 20
312.999656
 30
0.0
 10
330.000554
 20
321.221520
 30
0.0
 10
326.734546
 20
329.106697
 30
0.0
 10
320.920858
 20
334.920480
 30
0.0
  0
SPLINE
  5
212
100
AcDbEntity
  8
Layer_1
 62
7
100
AcDbSpline
 70
8
 71
3
 72
8
 73
4
 74
0
 40
0
 40
0
 40
0
 40
0
 40
1
 40
1
 40
1
 40
1
 10
320.920858
 20
334.920480
 30
0.0
 10
315.107169
 20
340.734263
 30
0.0
 10
307.222044
 20
344.000397
 30
0.0
 10
299.000180
 20
344.000346
 30
0.0
  0
LINE
  5
213
100
AcDbEntity
  8
Layer_1
 62
7
100
AcDbLine
 10
299.000180
 20
344.000346
 30
0.0
 11
299.000180
 21
344.000346
 31
0.0
  0
LINE
  5
214
100
AcDbEntity
  8
Layer_1
 62
7
100
AcDbLine
 10
294.000500
 20
332.349895
 30
0.0
 11
294.000500
 21
320.475169
 31
0.0
  0
SPLINE
  5
215
100
AcDbEntity
  8
Layer_1
 62
7
100
AcDbSpline
 70
8
 71
3
 72
8
 73
4
 74
0
 40
0
 40
0
 40
0
 40
0
 40
1
 40
1
 40
1
 40
1
 10
294.000500
 20
320.475169
 30
0.0
 10
293.020226
 20
319.820349
 30
0.0
 10
292.178146
 20
318.979322
 30
0.0
 10
291.522100
 20
317.999868
 30
0.0
  0
LINE
  5
216
100
AcDbEntity
  8
Layer_1
 62
7
100
AcDbLine
 10
291.522100
 20
317.999868
 30
0.0
 11
279.661300
 21
317.999868
 31
0.0
  0
SPLINE
  5
217
100
AcDbEntity
  8
Layer_1
 62
7
100
AcDbSpline
 70
8
 71
3
 72
8
 73
4
 74
0
 40
0
 40
0
 40
0
 40
0
 40
1
 40
1
 40
1
 40
1
 10
279.661300
 20
317.999868
 30
0.0
 10
281.480469
 20
325.032240
 30
0.0
 10
286.969503
 20
330.525419
 30
0.0
 10
294.000500
 20
332.349895
 30
0.0
  0
LINE
  5
218
100
AcDbEntity
  8
Layer_1
 62
7
100
AcDbLine
 10
294.000500
 20
332.349895
 30
0.0
 11
294.000500
 21
332.349895
 31
0.0
  0
SPLINE
  5
219
100
AcDbEntity
  8
Layer_1
 62
7
100
AcDbSpline
 70
8
 71
3
 72
8
 73
4
 74
0
 40
0
 40
0
 40
0
 40
0
 40
1
 40
1
 40
1
 40
1
 10
304.000400
 20
332.339555
 30
0.0
 10
311.032896
 20
330.520298
 30
0.0
 10
316.526101
 20
325.031047
 30
0.0
 10
318.350420
 20
317.999863
 30
0.0
  0
LINE
  5
21a
100
AcDbEntity
  8
Layer_1
 62
7
100
AcDbLine
 10
318.350420
 20
317.999863
 30
0.0
 11
306.478810
 21
317.999863
 31
0.0
  0
SPLINE
  5
21b
100
AcDbEntity
  8
Layer_1
 62
7
100
AcDbSpline
 70
8
 71
3
 72
8
 73
4
 74
0
 40
0
 40
0
 40
0
 40
0
 40
1
 40
1
 40
1
 40
1
 10
306.478810
 20
317.999863
 30
0.0
 10
306.478810
 20
317.999863
 30
0.0
 10
306.475810
 20
317.999863
 30
0.0
 10
306.475810
 20
317.999863
 30
0.0
  0
SPLINE
  5
21c
100
AcDbEntity
  8
Layer_1
 62
7
100
AcDbSpline
 70
8
 71
3
 72
8
 73
4
 74
0
 40
0
 40
0
 40
0
 40
0
 40
1
 40
1
 40
1
 40
1
 10
306.475810
 20
317.999863
 30
0.0
 10
305.820993
 20
318.980136
 30
0.0
 10
304.979970
 20
319.822215
 30
0.0
 10
304.000520
 20
320.478262
 30
0.0
  0
LINE
  5
21d
100
AcDbEntity
  8
Layer_1
 62
7
100
AcDbLine
 10
304.000520
 20
320.478262
 30
0.0
 11
304.000400
 21
332.339555
 31
0.0
  0
SPLINE
  5
21e
100
AcDbEntity
  8
Layer_1
 62
7
100
AcDbSpline
 70
8
 71
3
 72
8
 73
4
 74
0
 40
0
 40
0
 40
0
 40
0
 40
1
 40
1
 40
1
 40
1
 10
299.000180
 20
315.454799
 30
0.0
 10
300.353234
 20
315.455000
 30
0.0
 10
301.450313
 20
314.358388
 30
0.0
 10
301.450690
 20
313.005334
 30
0.0
  0
SPLINE
  5
21f
100
AcDbEntity
  8
Layer_1
 62
7
100
AcDbSpline
 70
8
 71
3
 72
8
 73
4
 74
0
 40
0
 40
0
 40
0
 40
0
 40
1
 40
1
 40
1
 40
1
 10
301.450690
 20
313.005334
 30
0.0
 10
301.449686
 20
312.233099
 30
0.0
 10
301.084675
 20
311.506529
 30
0.0
 10
300.465730
 20
311.044733
 30
0.0
  0
LINE
  5
220
100
AcDbEntity
  8
Layer_1
 62
7
100
AcDbLine
 10
300.465730
 20
311.044733
 30
0.0
 11
297.535680
 21
311.044733
 31
0.0
  0
SPLINE
  5
221
100
AcDbEntity
  8
Layer_1
 62
7
100
AcDbSpline
 70
8
 71
3
 72
8
 73
4
 74
0
 40
0
 40
0
 40
0
 40
0
 40
1
 40
1
 40
1
 40
1
 10
297.535680
 20
311.044733
 30
0.0
 10
296.916543
 20
311.506422
 30
0.0
 10
296.551334
 20
312.233009
 30
0.0
 10
296.550210
 20
313.005334
 30
0.0
  0
SPLINE
  5
222
100
AcDbEntity
  8
Layer_1
 62
7
100
AcDbSpline
 70
8
 71
3
 72
8
 73
4
 74
0
 40
0
 40
0
 40
0
 40
0
 40
1
 40
1
 40
1
 40
1
 10
296.550210
 20
313.005334
 30
0.0
 10
296.550587
 20
314.358177
 30
0.0
 10
297.647337
 20
315.454701
 30
0.0
 10
299.000180
 20
315.454799
 30
0.0
  0
LINE
  5
223
100
AcDbEntity
  8
Layer_1
 62
7
100
AcDbLine
 10
299.000180
 20
315.454799
 30
0.0
 11
299.000180
 21
315.454799
 31
0.0
  0
LINE
  5
224
100
AcDbEntity
  8
Layer_1
 62
7
100
AcDbLine
 10
279.649950
 20
307.999958
 30
0.0
 11
279.650460
 21
307.999958
 31
0.0
  0
LINE
  5
225
100
AcDbEntity
  8
Layer_1
 62
7
100
AcDbLine
 10
279.650460
 20
307.999958
 30
0.0
 11
291.522100
 21
307.999958
 31
0.0
  0
SPLINE
  5
226
100
AcDbEntity
  8
Layer_1
 62
7
100
AcDbSpline
 70
8
 71
3
 72
8
 73
4
 74
0
 40
0
 40
0
 40
0
 40
0
 40
1
 40
1
 40
1
 40
1
 10
291.522100
 20
307.999958
 30
0.0
 10
291.522100
 20
307.999958
 30
0.0
 10
291.525100
 20
307.999958
 30
0.0
 10
291.525100
 20
307.999958
 30
0.0
  0
SPLINE
  5
227
100
AcDbEntity
  8
Layer_1
 62
7
100
AcDbSpline
 70
8
 71
3
 72
8
 73
4
 74
0
 40
0
 40
0
 40
0
 40
0
 40
1
 40
1
 40
1
 40
1
 10
291.525100
 20
307.999958
 30
0.0
 10
292.179767
 20
307.019733
 30
0.0
 10
293.020613
 20
306.177657
 30
0.0
 10
293.999880
 20
305.521557
 30
0.0
  0
LINE
  5
228
100
AcDbEntity
  8
Layer_1
 62
7
100
AcDbLine
 10
293.999880
 20
305.521557
 30
0.0
 11
293.999880
 21
293.660787
 31
0.0
  0
SPLINE
  5
229
100
AcDbEntity
  8
Layer_1
 62
7
100
AcDbSpline
 70
8
 71
3
 72
8
 73
4
 74
0
 40
0
 40
0
 40
0
 40
0
 40
1
 40
1
 40
1
 40
1
 10
293.999880
 20
293.660787
 30
0.0
 10
286.967552
 20
295.479982
 30
0.0
 10
281.474416
 20
300.969001
 30
0.0
 10
279.649950
 20
307.999963
 30
0.0
  0
LINE
  5
22a
100
AcDbEntity
  8
Layer_1
 62
7
100
AcDbLine
 10
279.649950
 20
307.999963
 30
0.0
 11
279.649950
 21
307.999958
 31
0.0
  0
LINE
  5
22b
100
AcDbEntity
  8
Layer_1
 62
7
100
AcDbLine
 10
306.478810
 20
307.999958
 30
0.0
 11
318.340080
 21
307.999958
 31
0.0
  0
SPLINE
  5
22c
100
AcDbEntity
  8
Layer_1
 62
7
100
AcDbSpline
 70
8
 71
3
 72
8
 73
4
 74
0
 40
0
 40
0
 40
0
 40
0
 40
1
 40
1
 40
1
 40
1
 10
318.340080
 20
307.999958
 30
0.0
 10
316.520663
 20
300.967663
 30
0.0
 10
311.031447
 20
295.474685
 30
0.0
 10
304.000400
 20
293.650452
 30
0.0
  0
LINE
  5
22d
100
AcDbEntity
  8
Layer_1
 62
7
100
AcDbLine
 10
304.000400
 20
293.650452
 30
0.0
 11
304.000400
 21
305.524663
 31
0.0
  0
SPLINE
  5
22e
100
AcDbEntity
  8
Layer_1
 62
7
100
AcDbSpline
 70
8
 71
3
 72
8
 73
4
 74
0
 40
0
 40
0
 40
0
 40
0
 40
1
 40
1
 40
1
 40
1
 10
304.000400
 20
305.524663
 30
0.0
 10
304.980678
 20
306.179482
 30
0.0
 10
305.822761
 20
307.020508
 30
0.0
 10
306.478810
 20
307.999963
 30
0.0
  0
LINE
  5
22f
100
AcDbEntity
  8
Layer_1
 62
7
100
AcDbLine
 10
306.478810
 20
307.999963
 30
0.0
 11
306.478810
 21
307.999958
 31
0.0
  0
SPLINE
  5
230
100
AcDbEntity
  8
Layer_1
 62
7
100
AcDbSpline
 70
8
 71
3
 72
8
 73
4
 74
0
 40
0
 40
0
 40
0
 40
0
 40
1
 40
1
 40
1
 40
1
 10
363.000180
 20
344.000346
 30
0.0
 10
354.778318
 20
344.000394
 30
0.0
 10
346.893196
 20
340.734259
 30
0.0
 10
341.079509
 20
334.920476
 30
0.0
  0
SPLINE
  5
231
100
AcDbEntity
  8
Layer_1
 62
7
100
AcDbSpline
 70
8
 71
3
 72
8
 73
4
 74
0
 40
0
 40
0
 40
0
 40
0
 40
1
 40
1
 40
1
 40
1
 10
341.079509
 20
334.920476
 30
0.0
 10
335.265822
 20
329.106694
 30
0.0
 10
331.999816
 20
321.221518
 30
0.0
 10
332.000000
 20
312.999656
 30
0.0
  0
SPLINE
  5
232
100
AcDbEntity
  8
Layer_1
 62
7
100
AcDbSpline
 70
8
 71
3
 72
8
 73
4
 74
0
 40
0
 40
0
 40
0
 40
0
 40
1
 40
1
 40
1
 40
1
 10
332.000000
 20
312.999656
 30
0.0
 10
332.000189
 20
295.878892
 30
0.0
 10
345.879416
 20
281.999899
 30
0.0
 10
363.000180
 20
282.000000
 30
0.0
  0
SPLINE
  5
233
100
AcDbEntity
  8
Layer_1
 62
7
100
AcDbSpline
 70
8
 71
3
 72
8
 73
4
 74
0
 40
0
 40
0
 40
0
 40
0
 40
1
 40
1
 40
1
 40
1
 10
363.000180
 20
282.000000
 30
0.0
 10
380.120948
 20
281.999894
 30
0.0
 10
394.000181
 20
295.878888
 30
0.0
 10
394.000370
 20
312.999656
 30
0.0
  0
SPLINE
  5
234
100
AcDbEntity
  8
Layer_1
 62
7
100
AcDbSpline
 70
8
 71
3
 72
8
 73
4
 74
0
 40
0
 40
0
 40
0
 40
0
 40
1
 40
1
 40
1
 40
1
 10
394.000370
 20
312.999656
 30
0.0
 10
394.000554
 20
321.221520
 30
0.0
 10
390.734546
 20
329.106697
 30
0.0
 10
384.920858
 20
334.920480
 30
0.0
  0
SPLINE
  5
235
100
AcDbEntity
  8
Layer_1
 62
7
100
AcDbSpline
 70
8
 71
3
 72
8
 73
4
 74
0
 40
0
 40
0
 40
0
 40
0
 40
1
 40
1
 40
1
 40
1
 10
384.920858
 20
334.920480
 30
0.0
 10
379.107169
 20
340.734263
 30
0.0
 10
371.222044
 20
344.000397
 30
0.0
 10
363.000180
 20
344.000346
 30
0.0
  0
LINE
  5
236
100
AcDbEntity
  8
Layer_1
 62
7
100
AcDbLine
 10
363.000180
 20
344.000346
 30
0.0
 11
363.000180
 21
344.000346
 31
0.0
  0
LINE
  5
237
100
AcDbEntity
  8
Layer_1
 62
7
100
AcDbLine
 10
358.000500
 20
332.349895
 30
0.0
 11
358.000500
 21
320.475169
 31
0.0
  0
SPLINE
  5
238
100
AcDbEntity
  8
Layer_1
 62
7
100
AcDbSpline
 70
8
 71
3
 72
8
 73
4
 74
0
 40
0
 40
0
 40
0
 40
0
 40
1
 40
1
 40
1
 40
1
 10
358.000500
 20
320.475169
 30
0.0
 10
357.020226
 20
319.820349
 30
0.0
 10
356.178146
 20
318.979322
 30
0.0
 10
355.522100
 20
317.999868
 30
0.0
  0
LINE
  5
239
100
AcDbEntity
  8
Layer_1
 62
7
100
AcDbLine
 10
355.522100
 20
317.999868
 30
0.0
 11
343.661300
 21
317.999868
 31
0.0
  0
SPLINE
  5
23a
100
AcDbEntity
  8
Layer_1
 62
7
100
AcDbSpline
 70
8
 71
3
 72
8
 73
4
 74
0
 40
0
 40
0
 40
0
 40
0
 40
1
 40
1
 40
1
 40
1
 10
343.661300
 20
317.999868
 30
0.0
 10
345.480469
 20
325.032240
 30
0.0
 10
350.969503
 20
330.525419
 30
0.0
 10
358.000500
 20
332.349895
 30
0.0
  0
LINE
  5
23b
100
AcDbEntity
  8
Layer_1
 62
7
100
AcDbLine
 10
358.000500
 20
332.349895
 30
0.0
 11
358.000500
 21
332.349895
 31
0.0
  0
SPLINE
  5
23c
100
AcDbEntity
  8
Layer_1
 62
7
100
AcDbSpline
 70
8
 71
3
 72
8
 73
4
 74
0
 40
0
 40
0
 40
0
 40
0
 40
1
 40
1
 40
1
 40
1
 10
368.000400
 20
332.339555
 30
0.0
 10
375.032896
 20
330.520298
 30
0.0
 10
380.526101
 20
325.031047
 30
0.0
 10
382.350420
 20
317.999863
 30
0.0
  0
LINE
  5
23d
100
AcDbEntity
  8
Layer_1
 62
7
100
AcDbLine
 10
382.350420
 20
317.999863
 30
0.0
 11
370.478810
 21
317.999863
 31
0.0
  0
LINE
  5
23e
100
AcDbEntity
  8
Layer_1
 62
7
100
AcDbLine
 10
370.478810
 20
317.999863
 30
0.0
 11
370.475810
 21
317.999863
 31
0.0
  0
SPLINE
  5
23f
100
AcDbEntity
  8
Layer_1
 62
7
100
AcDbSpline
 70
8
 71
3
 72
8
 73
4
 74
0
 40
0
 40
0
 40
0
 40
0
 40
1
 40
1
 40
1
 40
1
 10
370.475810
 20
317.999863
 30
0.0
 10
369.820993
 20
318.980136
 30
0.0
 10
368.979970
 20
319.822215
 30
0.0
 10
368.000520
 20
320.478262
 30
0.0
  0
LINE
  5
240
100
AcDbEntity
  8
Layer_1
 62
7
100
AcDbLine
 10
368.000520
 20
320.478262
 30
0.0
 11
368.000400
 21
332.339555
 31
0.0
  0
SPLINE
  5
241
100
AcDbEntity
  8
Layer_1
 62
7
100
AcDbSpline
 70
8
 71
3
 72
8
 73
4
 74
0
 40
0
 40
0
 40
0
 40
0
 40
1
 40
1
 40
1
 40
1
 10
363.000180
 20
315.454799
 30
0.0
 10
364.353234
 20
315.455000
 30
0.0
 10
365.450313
 20
314.358388
 30
0.0
 10
365.450690
 20
313.005334
 30
0.0
  0
SPLINE
  5
242
100
AcDbEntity
  8
Layer_1
 62
7
100
AcDbSpline
 70
8
 71
3
 72
8
 73
4
 74
0
 40
0
 40
0
 40
0
 40
0
 40
1
 40
1
 40
1
 40
1
 10
365.450690
 20
313.005334
 30
0.0
 10
365.449686
 20
312.233099
 30
0.0
 10
365.084675
 20
311.506529
 30
0.0
 10
364.465730
 20
311.044733
 30
0.0
  0
SPLINE
  5
243
100
AcDbEntity
  8
Layer_1
 62
7
100
AcDbSpline
 70
8
 71
3
 72
8
 73
4
 74
0
 40
0
 40
0
 40
0
 40
0
 40
1
 40
1
 40
1
 40
1
 10
364.465730
 20
311.044733
 30
0.0
 10
364.465730
 20
311.044733
 30
0.0
 10
361.535680
 20
311.044733
 30
0.0
 10
361.535680
 20
311.044733
 30
0.0
  0
SPLINE
  5
244
100
AcDbEntity
  8
Layer_1
 62
7
100
AcDbSpline
 70
8
 71
3
 72
8
 73
4
 74
0
 40
0
 40
0
 40
0
 40
0
 40
1
 40
1
 40
1
 40
1
 10
361.535680
 20
311.044733
 30
0.0
 10
360.916543
 20
311.506422
 30
0.0
 10
360.551334
 20
312.233009
 30
0.0
 10
360.550210
 20
313.005334
 30
0.0
  0
SPLINE
  5
245
100
AcDbEntity
  8
Layer_1
 62
7
100
AcDbSpline
 70
8
 71
3
 72
8
 73
4
 74
0
 40
0
 40
0
 40
0
 40
0
 40
1
 40
1
 40
1
 40
1
 10
360.550210
 20
313.005334
 30
0.0
 10
360.550587
 20
314.358177
 30
0.0
 10
361.647337
 20
315.454701
 30
0.0
 10
363.000180
 20
315.454799
 30
0.0
  0
LINE
  5
246
100
AcDbEntity
  8
Layer_1
 62
7
100
AcDbLine
 10
363.000180
 20
315.454799
 30
0.0
 11
363.000180
 21
315.454799
 31
0.0
  0
LINE
  5
247
100
AcDbEntity
  8
Layer_1
 62
7
100
AcDbLine
 10
343.649950
 20
307.999958
 30
0.0
 11
343.650460
 21
307.999958
 31
0.0
  0
LINE
  5
248
100
AcDbEntity
  8
Layer_1
 62
7
100
AcDbLine
 10
343.650460
 20
307.999958
 30
0.0
 11
355.522100
 21
307.999958
 31
0.0
  0
LINE
  5
249
100
AcDbEntity
  8
Layer_1
 62
7
100
AcDbLine
 10
355.522100
 20
307.999958
 30
0.0
 11
355.525100
 21
307.999958
 31
0.0
  0
SPLINE
  5
24a
100
AcDbEntity
  8
Layer_1
 62
7
100
AcDbSpline
 70
8
 71
3
 72
8
 73
4
 74
0
 40
0
 40
0
 40
0
 40
0
 40
1
 40
1
 40
1
 40
1
 10
355.525100
 20
307.999958
 30
0.0
 10
356.179767
 20
307.019733
 30
0.0
 10
357.020613
 20
306.177657
 30
0.0
 10
357.999880
 20
305.521557
 30
0.0
  0
SPLINE
  5
24b
100
AcDbEntity
  8
Layer_1
 62
7
100
AcDbSpline
 70
8
 71
3
 72
8
 73
4
 74
0
 40
0
 40
0
 40
0
 40
0
 40
1
 40
1
 40
1
 40
1
 10
357.999880
 20
305.521557
 30
0.0
 10
357.999880
 20
305.521557
 30
0.0
 10
357.999880
 20
293.660787
 30
0.0
 10
357.999880
 20
293.660787
 30
0.0
  0
SPLINE
  5
24c
100
AcDbEntity
  8
Layer_1
 62
7
100
AcDbSpline
 70
8
 71
3
 72
8
 73
4
 74
0
 40
0
 40
0
 40
0
 40
0
 40
1
 40
1
 40
1
 40
1
 10
357.999880
 20
293.660787
 30
0.0
 10
350.967552
 20
295.479982
 30
0.0
 10
345.474416
 20
300.969001
 30
0.0
 10
343.649950
 20
307.999963
 30
0.0
  0
LINE
  5
24d
100
AcDbEntity
  8
Layer_1
 62
7
100
AcDbLine
 10
343.649950
 20
307.999963
 30
0.0
 11
343.649950
 21
307.999958
 31
0.0
  0
SPLINE
  5
24e
100
AcDbEntity
  8
Layer_1
 62
7
100
AcDbSpline
 70
8
 71
3
 72
8
 73
4
 74
0
 40
0
 40
0
 40
0
 40
0
 40
1
 40
1
 40
1
 40
1
 10
370.478810
 20
307.999958
 30
0.0
 10
370.478810
 20
307.999958
 30
0.0
 10
382.340080
 20
307.999958
 30
0.0
 10
382.340080
 20
307.999958
 30
0.0
  0
SPLINE
  5
24f
100
AcDbEntity
  8
Layer_1
 62
7
100
AcDbSpline
 70
8
 71
3
 72
8
 73
4
 74
0
 40
0
 40
0
 40
0
 40
0
 40
1
 40
1
 40
1
 40
1
 10
382.340080
 20
307.999958
 30
0.0
 10
380.520663
 20
300.967663
 30
0.0
 10
375.031447
 20
295.474685
 30
0.0
 10
368.000400
 20
293.650452
 30
0.0
  0
LINE
  5
250
100
AcDbEntity
  8
Layer_1
 62
7
100
AcDbLine
 10
368.000400
 20
293.650452
 30
0.0
 11
368.000400
 21
305.524663
 31
0.0
  0
SPLINE
  5
251
100
AcDbEntity
  8
Layer_1
 62
7
100
AcDbSpline
 70
8
 71
3
 72
8
 73
4
 74
0
 40
0
 40
0
 40
0
 40
0
 40
1
 40
1
 40
1
 40
1
 10
368.000400
 20
305.524663
 30
0.0
 10
368.980678
 20
306.179482
 30
0.0
 10
369.822761
 20
307.020508
 30
0.0
 10
370.478810
 20
307.999963
 30
0.0
  0
LINE
  5
252
100
AcDbEntity
  8
Layer_1
 62
7
100
AcDbLine
 10
370.478810
 20
307.999963
 30
0.0
 11
370.478810
 21
307.999958
 31
0.0
  0
SPLINE
  5
253
100
AcDbEntity
  8
Layer_1
 62
7
100
AcDbSpline
 70
8
 71
3
 72
8
 73
4
 74
0
 40
0
 40
0
 40
0
 40
0
 40
1
 40
1
 40
1
 40
1
 10
299.000180
 20
281.000355
 30
0.0
 10
290.778317
 20
281.000403
 30
0.0
 10
282.893194
 20
277.734267
 30
0.0
 10
277.079507
 20
271.920484
 30
0.0
  0
SPLINE
  5
254
100
AcDbEntity
  8
Layer_1
 62
7
100
AcDbSpline
 70
8
 71
3
 72
8
 73
4
 74
0
 40
0
 40
0
 40
0
 40
0
 40
1
 40
1
 40
1
 40
1
 10
277.079507
 20
271.920484
 30
0.0
 10
271.265820
 20
266.106700
 30
0.0
 10
267.999815
 20
258.221523
 30
0.0
 10
268.000000
 20
249.999660
 30
0.0
  0
SPLINE
  5
255
100
AcDbEntity
  8
Layer_1
 62
7
100
AcDbSpline
 70
8
 71
3
 72
8
 73
4
 74
0
 40
0
 40
0
 40
0
 40
0
 40
1
 40
1
 40
1
 40
1
 10
268.000000
 20
249.999660
 30
0.0
 10
268.000187
 20
232.878895
 30
0.0
 10
281.879415
 20
218.999899
 30
0.0
 10
299.000180
 20
219.000000
 30
0.0
  0
SPLINE
  5
256
100
AcDbEntity
  8
Layer_1
 62
7
100
AcDbSpline
 70
8
 71
3
 72
8
 73
4
 74
0
 40
0
 40
0
 40
0
 40
0
 40
1
 40
1
 40
1
 40
1
 10
299.000180
 20
219.000000
 30
0.0
 10
316.120949
 20
218.999894
 30
0.0
 10
330.000183
 20
232.878891
 30
0.0
 10
330.000370
 20
249.999660
 30
0.0
  0
SPLINE
  5
257
100
AcDbEntity
  8
Layer_1
 62
7
100
AcDbSpline
 70
8
 71
3
 72
8
 73
4
 74
0
 40
0
 40
0
 40
0
 40
0
 40
1
 40
1
 40
1
 40
1
 10
330.000370
 20
249.999660
 30
0.0
 10
330.000555
 20
258.221525
 30
0.0
 10
326.734548
 20
266.106704
 30
0.0
 10
320.920859
 20
271.920487
 30
0.0
  0
SPLINE
  5
258
100
AcDbEntity
  8
Layer_1
 62
7
100
AcDbSpline
 70
8
 71
3
 72
8
 73
4
 74
0
 40
0
 40
0
 40
0
 40
0
 40
1
 40
1
 40
1
 40
1
 10
320.920859
 20
271.920487
 30
0.0
 10
315.107170
 20
277.734271
 30
0.0
 10
307.222045
 20
281.000406
 30
0.0
 10
299.000180
 20
281.000355
 30
0.0
  0
LINE
  5
259
100
AcDbEntity
  8
Layer_1
 62
7
100
AcDbLine
 10
299.000180
 20
281.000355
 30
0.0
 11
299.000180
 21
281.000355
 31
0.0
  0
LINE
  5
25a
100
AcDbEntity
  8
Layer_1
 62
7
100
AcDbLine
 10
294.000500
 20
269.349901
 30
0.0
 11
294.000500
 21
257.475178
 31
0.0
  0
SPLINE
  5
25b
100
AcDbEntity
  8
Layer_1
 62
7
100
AcDbSpline
 70
8
 71
3
 72
8
 73
4
 74
0
 40
0
 40
0
 40
0
 40
0
 40
1
 40
1
 40
1
 40
1
 10
294.000500
 20
257.475178
 30
0.0
 10
293.020226
 20
256.820358
 30
0.0
 10
292.178146
 20
255.979331
 30
0.0
 10
291.522100
 20
254.999877
 30
0.0
  0
LINE
  5
25c
100
AcDbEntity
  8
Layer_1
 62
7
100
AcDbLine
 10
291.522100
 20
254.999877
 30
0.0
 11
279.661300
 21
254.999877
 31
0.0
  0
SPLINE
  5
25d
100
AcDbEntity
  8
Layer_1
 62
7
100
AcDbSpline
 70
8
 71
3
 72
8
 73
4
 74
0
 40
0
 40
0
 40
0
 40
0
 40
1
 40
1
 40
1
 40
1
 10
279.661300
 20
254.999877
 30
0.0
 10
281.480469
 20
262.032248
 30
0.0
 10
286.969504
 20
267.525426
 30
0.0
 10
294.000500
 20
269.349901
 30
0.0
  0
LINE
  5
25e
100
AcDbEntity
  8
Layer_1
 62
7
100
AcDbLine
 10
294.000500
 20
269.349901
 30
0.0
 11
294.000500
 21
269.349901
 31
0.0
  0
SPLINE
  5
25f
100
AcDbEntity
  8
Layer_1
 62
7
100
AcDbSpline
 70
8
 71
3
 72
8
 73
4
 74
0
 40
0
 40
0
 40
0
 40
0
 40
1
 40
1
 40
1
 40
1
 10
304.000400
 20
269.339601
 30
0.0
 10
311.032897
 20
267.520344
 30
0.0
 10
316.526101
 20
262.031092
 30
0.0
 10
318.350420
 20
254.999907
 30
0.0
  0
LINE
  5
260
100
AcDbEntity
  8
Layer_1
 62
7
100
AcDbLine
 10
318.350420
 20
254.999907
 30
0.0
 11
306.478810
 21
254.999907
 31
0.0
  0
SPLINE
  5
261
100
AcDbEntity
  8
Layer_1
 62
7
100
AcDbSpline
 70
8
 71
3
 72
8
 73
4
 74
0
 40
0
 40
0
 40
0
 40
0
 40
1
 40
1
 40
1
 40
1
 10
306.478810
 20
254.999907
 30
0.0
 10
306.478810
 20
254.999907
 30
0.0
 10
306.475810
 20
254.999907
 30
0.0
 10
306.475810
 20
254.999907
 30
0.0
  0
SPLINE
  5
262
100
AcDbEntity
  8
Layer_1
 62
7
100
AcDbSpline
 70
8
 71
3
 72
8
 73
4
 74
0
 40
0
 40
0
 40
0
 40
0
 40
1
 40
1
 40
1
 40
1
 10
306.475810
 20
254.999907
 30
0.0
 10
305.820993
 20
255.980181
 30
0.0
 10
304.979970
 20
256.822260
 30
0.0
 10
304.000520
 20
257.478308
 30
0.0
  0
LINE
  5
263
100
AcDbEntity
  8
Layer_1
 62
7
100
AcDbLine
 10
304.000520
 20
257.478308
 30
0.0
 11
304.000400
 21
269.339601
 31
0.0
  0
SPLINE
  5
264
100
AcDbEntity
  8
Layer_1
 62
7
100
AcDbSpline
 70
8
 71
3
 72
8
 73
4
 74
0
 40
0
 40
0
 40
0
 40
0
 40
1
 40
1
 40
1
 40
1
 10
299.000180
 20
252.454851
 30
0.0
 10
300.353237
 20
252.455052
 30
0.0
 10
301.450317
 20
251.358437
 30
0.0
 10
301.450690
 20
250.005380
 30
0.0
  0
SPLINE
  5
265
100
AcDbEntity
  8
Layer_1
 62
7
100
AcDbSpline
 70
8
 71
3
 72
8
 73
4
 74
0
 40
0
 40
0
 40
0
 40
0
 40
1
 40
1
 40
1
 40
1
 10
301.450690
 20
250.005380
 30
0.0
 10
301.449685
 20
249.233146
 30
0.0
 10
301.084673
 20
248.506579
 30
0.0
 10
300.465730
 20
248.044784
 30
0.0
  0
LINE
  5
266
100
AcDbEntity
  8
Layer_1
 62
7
100
AcDbLine
 10
300.465730
 20
248.044784
 30
0.0
 11
297.535680
 21
248.044784
 31
0.0
  0
SPLINE
  5
267
100
AcDbEntity
  8
Layer_1
 62
7
100
AcDbSpline
 70
8
 71
3
 72
8
 73
4
 74
0
 40
0
 40
0
 40
0
 40
0
 40
1
 40
1
 40
1
 40
1
 10
297.535680
 20
248.044784
 30
0.0
 10
296.916544
 20
248.506472
 30
0.0
 10
296.551335
 20
249.233056
 30
0.0
 10
296.550210
 20
250.005380
 30
0.0
  0
SPLINE
  5
268
100
AcDbEntity
  8
Layer_1
 62
7
100
AcDbSpline
 70
8
 71
3
 72
8
 73
4
 74
0
 40
0
 40
0
 40
0
 40
0
 40
1
 40
1
 40
1
 40
1
 10
296.550210
 20
250.005380
 30
0.0
 10
296.550583
 20
251.358226
 30
0.0
 10
297.647334
 20
252.454753
 30
0.0
 10
299.000180
 20
252.454851
 30
0.0
  0
LINE
  5
269
100
AcDbEntity
  8
Layer_1
 62
7
100
AcDbLine
 10
299.000180
 20
252.454851
 30
0.0
 11
299.000180
 21
252.454851
 31
0.0
  0
LINE
  5
26a
100
AcDbEntity
  8
Layer_1
 62
7
100
AcDbLine
 10
279.649950
 20
245.000003
 30
0.0
 11
279.650460
 21
245.000003
 31
0.0
  0
LINE
  5
26b
100
AcDbEntity
  8
Layer_1
 62
7
100
AcDbLine
 10
279.650460
 20
245.000003
 30
0.0
 11
291.522100
 21
245.000003
 31
0.0
  0
SPLINE
  5
26c
100
AcDbEntity
  8
Layer_1
 62
7
100
AcDbSpline
 70
8
 71
3
 72
8
 73
4
 74
0
 40
0
 40
0
 40
0
 40
0
 40
1
 40
1
 40
1
 40
1
 10
291.522100
 20
245.000003
 30
0.0
 10
291.522100
 20
245.000003
 30
0.0
 10
291.525100
 20
245.000003
 30
0.0
 10
291.525100
 20
245.000003
 30
0.0
  0
SPLINE
  5
26d
100
AcDbEntity
  8
Layer_1
 62
7
100
AcDbSpline
 70
8
 71
3
 72
8
 73
4
 74
0
 40
0
 40
0
 40
0
 40
0
 40
1
 40
1
 40
1
 40
1
 10
291.525100
 20
245.000003
 30
0.0
 10
292.179768
 20
244.019780
 30
0.0
 10
293.020614
 20
243.177705
 30
0.0
 10
293.999880
 20
242.521607
 30
0.0
  0
LINE
  5
26e
100
AcDbEntity
  8
Layer_1
 62
7
100
AcDbLine
 10
293.999880
 20
242.521607
 30
0.0
 11
293.999880
 21
230.660834
 31
0.0
  0
SPLINE
  5
26f
100
AcDbEntity
  8
Layer_1
 62
7
100
AcDbSpline
 70
8
 71
3
 72
8
 73
4
 74
0
 40
0
 40
0
 40
0
 40
0
 40
1
 40
1
 40
1
 40
1
 10
293.999880
 20
230.660834
 30
0.0
 10
286.967554
 20
232.480028
 30
0.0
 10
281.474419
 20
237.969043
 30
0.0
 10
279.649950
 20
245.000003
 30
0.0
  0
LINE
  5
270
100
AcDbEntity
  8
Layer_1
 62
7
100
AcDbLine
 10
279.649950
 20
245.000003
 30
0.0
 11
279.649950
 21
245.000003
 31
0.0
  0
LINE
  5
271
100
AcDbEntity
  8
Layer_1
 62
7
100
AcDbLine
 10
306.478810
 20
245.000003
 30
0.0
 11
318.340080
 21
245.000003
 31
0.0
  0
SPLINE
  5
272
100
AcDbEntity
  8
Layer_1
 62
7
100
AcDbSpline
 70
8
 71
3
 72
8
 73
4
 74
0
 40
0
 40
0
 40
0
 40
0
 40
1
 40
1
 40
1
 40
1
 10
318.340080
 20
245.000003
 30
0.0
 10
316.520661
 20
237.967711
 30
0.0
 10
311.031445
 20
232.474736
 30
0.0
 10
304.000400
 20
230.650504
 30
0.0
  0
SPLINE
  5
273
100
AcDbEntity
  8
Layer_1
 62
7
100
AcDbSpline
 70
8
 71
3
 72
8
 73
4
 74
0
 40
0
 40
0
 40
0
 40
0
 40
1
 40
1
 40
1
 40
1
 10
304.000400
 20
230.650504
 30
0.0
 10
304.000400
 20
230.650504
 30
0.0
 10
304.000400
 20
242.524707
 30
0.0
 10
304.000400
 20
242.524707
 30
0.0
  0
SPLINE
  5
274
100
AcDbEntity
  8
Layer_1
 62
7
100
AcDbSpline
 70
8
 71
3
 72
8
 73
4
 74
0
 40
0
 40
0
 40
0
 40
0
 40
1
 40
1
 40
1
 40
1
 10
304.000400
 20
242.524707
 30
0.0
 10
304.980677
 20
243.179525
 30
0.0
 10
305.822760
 20
244.020550
 30
0.0
 10
306.478810
 20
245.000003
 30
0.0
  0
LINE
  5
275
100
AcDbEntity
  8
Layer_1
 62
7
100
AcDbLine
 10
306.478810
 20
245.000003
 30
0.0
 11
306.478810
 21
245.000003
 31
0.0
  0
SPLINE
  5
276
100
AcDbEntity
  8
Layer_1
 62
7
100
AcDbSpline
 70
8
 71
3
 72
8
 73
4
 74
0
 40
0
 40
0
 40
0
 40
0
 40
1
 40
1
 40
1
 40
1
 10
363.000180
 20
218.000363
 30
0.0
 10
354.778317
 20
218.000411
 30
0.0
 10
346.893195
 20
214.734275
 30
0.0
 10
341.079508
 20
208.920492
 30
0.0
  0
SPLINE
  5
277
100
AcDbEntity
  8
Layer_1
 62
7
100
AcDbSpline
 70
8
 71
3
 72
8
 73
4
 74
0
 40
0
 40
0
 40
0
 40
0
 40
1
 40
1
 40
1
 40
1
 10
341.079508
 20
208.920492
 30
0.0
 10
335.265821
 20
203.106710
 30
0.0
 10
331.999816
 20
195.221533
 30
0.0
 10
332.000000
 20
186.999670
 30
0.0
  0
SPLINE
  5
278
100
AcDbEntity
  8
Layer_1
 62
7
100
AcDbSpline
 70
8
 71
3
 72
8
 73
4
 74
0
 40
0
 40
0
 40
0
 40
0
 40
1
 40
1
 40
1
 40
1
 10
332.000000
 20
186.999670
 30
0.0
 10
332.000181
 20
169.878901
 30
0.0
 10
345.879411
 20
155.999899
 30
0.0
 10
363.000180
 20
156.000000
 30
0.0
  0
SPLINE
  5
279
100
AcDbEntity
  8
Layer_1
 62
7
100
AcDbSpline
 70
8
 71
3
 72
8
 73
4
 74
0
 40
0
 40
0
 40
0
 40
0
 40
1
 40
1
 40
1
 40
1
 10
363.000180
 20
156.000000
 30
0.0
 10
380.120953
 20
155.999894
 30
0.0
 10
394.000189
 20
169.878897
 30
0.0
 10
394.000370
 20
186.999670
 30
0.0
  0
SPLINE
  5
27a
100
AcDbEntity
  8
Layer_1
 62
7
100
AcDbSpline
 70
8
 71
3
 72
8
 73
4
 74
0
 40
0
 40
0
 40
0
 40
0
 40
1
 40
1
 40
1
 40
1
 10
394.000370
 20
186.999670
 30
0.0
 10
394.000554
 20
195.221534
 30
0.0
 10
390.734548
 20
203.106713
 30
0.0
 10
384.920859
 20
208.920496
 30
0.0
  0
SPLINE
  5
27b
100
AcDbEntity
  8
Layer_1
 62
7
100
AcDbSpline
 70
8
 71
3
 72
8
 73
4
 74
0
 40
0
 40
0
 40
0
 40
0
 40
1
 40
1
 40
1
 40
1
 10
384.920859
 20
208.920496
 30
0.0
 10
379.107170
 20
214.734279
 30
0.0
 10
371.222044
 20
218.000414
 30
0.0
 10
363.000180
 20
218.000363
 30
0.0
  0
LINE
  5
27c
100
AcDbEntity
  8
Layer_1
 62
7
100
AcDbLine
 10
363.000180
 20
218.000363
 30
0.0
 11
363.000180
 21
218.000363
 31
0.0
  0
LINE
  5
27d
100
AcDbEntity
  8
Layer_1
 62
7
100
AcDbLine
 10
358.000500
 20
206.349910
 30
0.0
 11
358.000500
 21
194.475190
 31
0.0
  0
SPLINE
  5
27e
100
AcDbEntity
  8
Layer_1
 62
7
100
AcDbSpline
 70
8
 71
3
 72
8
 73
4
 74
0
 40
0
 40
0
 40
0
 40
0
 40
1
 40
1
 40
1
 40
1
 10
358.000500
 20
194.475190
 30
0.0
 10
357.020226
 20
193.820370
 30
0.0
 10
356.178147
 20
192.979344
 30
0.0
 10
355.522100
 20
191.999890
 30
0.0
  0
LINE
  5
27f
100
AcDbEntity
  8
Layer_1
 62
7
100
AcDbLine
 10
355.522100
 20
191.999890
 30
0.0
 11
343.661300
 21
191.999890
 31
0.0
  0
SPLINE
  5
280
100
AcDbEntity
  8
Layer_1
 62
7
100
AcDbSpline
 70
8
 71
3
 72
8
 73
4
 74
0
 40
0
 40
0
 40
0
 40
0
 40
1
 40
1
 40
1
 40
1
 10
343.661300
 20
191.999890
 30
0.0
 10
345.480471
 20
199.032259
 30
0.0
 10
350.969505
 20
204.525435
 30
0.0
 10
358.000500
 20
206.349910
 30
0.0
  0
LINE
  5
281
100
AcDbEntity
  8
Layer_1
 62
7
100
AcDbLine
 10
358.000500
 20
206.349910
 30
0.0
 11
358.000500
 21
206.349910
 31
0.0
  0
SPLINE
  5
282
100
AcDbEntity
  8
Layer_1
 62
7
100
AcDbSpline
 70
8
 71
3
 72
8
 73
4
 74
0
 40
0
 40
0
 40
0
 40
0
 40
1
 40
1
 40
1
 40
1
 10
368.000400
 20
206.339610
 30
0.0
 10
375.032895
 20
204.520354
 30
0.0
 10
380.526100
 20
199.031104
 30
0.0
 10
382.350420
 20
191.999920
 30
0.0
  0
LINE
  5
283
100
AcDbEntity
  8
Layer_1
 62
7
100
AcDbLine
 10
382.350420
 20
191.999920
 30
0.0
 11
370.478810
 21
191.999920
 31
0.0
  0
LINE
  5
284
100
AcDbEntity
  8
Layer_1
 62
7
100
AcDbLine
 10
370.478810
 20
191.999920
 30
0.0
 11
370.475810
 21
191.999920
 31
0.0
  0
SPLINE
  5
285
100
AcDbEntity
  8
Layer_1
 62
7
100
AcDbSpline
 70
8
 71
3
 72
8
 73
4
 74
0
 40
0
 40
0
 40
0
 40
0
 40
1
 40
1
 40
1
 40
1
 10
370.475810
 20
191.999920
 30
0.0
 10
369.820993
 20
192.980193
 30
0.0
 10
368.979970
 20
193.822272
 30
0.0
 10
368.000520
 20
194.478320
 30
0.0
  0
LINE
  5
286
100
AcDbEntity
  8
Layer_1
 62
7
100
AcDbLine
 10
368.000520
 20
194.478320
 30
0.0
 11
368.000400
 21
206.339610
 31
0.0
  0
SPLINE
  5
287
100
AcDbEntity
  8
Layer_1
 62
7
100
AcDbSpline
 70
8
 71
3
 72
8
 73
4
 74
0
 40
0
 40
0
 40
0
 40
0
 40
1
 40
1
 40
1
 40
1
 10
363.000180
 20
189.454860
 30
0.0
 10
364.353236
 20
189.455061
 30
0.0
 10
365.450316
 20
188.358446
 30
0.0
 10
365.450690
 20
187.005390
 30
0.0
  0
SPLINE
  5
288
100
AcDbEntity
  8
Layer_1
 62
7
100
AcDbSpline
 70
8
 71
3
 72
8
 73
4
 74
0
 40
0
 40
0
 40
0
 40
0
 40
1
 40
1
 40
1
 40
1
 10
365.450690
 20
187.005390
 30
0.0
 10
365.449686
 20
186.233155
 30
0.0
 10
365.084675
 20
185.506586
 30
0.0
 10
364.465730
 20
185.044790
 30
0.0
  0
SPLINE
  5
289
100
AcDbEntity
  8
Layer_1
 62
7
100
AcDbSpline
 70
8
 71
3
 72
8
 73
4
 74
0
 40
0
 40
0
 40
0
 40
0
 40
1
 40
1
 40
1
 40
1
 10
364.465730
 20
185.044790
 30
0.0
 10
364.465730
 20
185.044790
 30
0.0
 10
361.535680
 20
185.044790
 30
0.0
 10
361.535680
 20
185.044790
 30
0.0
  0
SPLINE
  5
28a
100
AcDbEntity
  8
Layer_1
 62
7
100
AcDbSpline
 70
8
 71
3
 72
8
 73
4
 74
0
 40
0
 40
0
 40
0
 40
0
 40
1
 40
1
 40
1
 40
1
 10
361.535680
 20
185.044790
 30
0.0
 10
360.916543
 20
185.506479
 30
0.0
 10
360.551334
 20
186.233065
 30
0.0
 10
360.550210
 20
187.005390
 30
0.0
  0
SPLINE
  5
28b
100
AcDbEntity
  8
Layer_1
 62
7
100
AcDbSpline
 70
8
 71
3
 72
8
 73
4
 74
0
 40
0
 40
0
 40
0
 40
0
 40
1
 40
1
 40
1
 40
1
 10
360.550210
 20
187.005390
 30
0.0
 10
360.550584
 20
188.358235
 30
0.0
 10
361.647335
 20
189.454762
 30
0.0
 10
363.000180
 20
189.454860
 30
0.0
  0
LINE
  5
28c
100
AcDbEntity
  8
Layer_1
 62
7
100
AcDbLine
 10
363.000180
 20
189.454860
 30
0.0
 11
363.000180
 21
189.454860
 31
0.0
  0
LINE
  5
28d
100
AcDbEntity
  8
Layer_1
 62
7
100
AcDbLine
 10
343.649950
 20
182.000010
 30
0.0
 11
343.650460
 21
182.000010
 31
0.0
  0
LINE
  5
28e
100
AcDbEntity
  8
Layer_1
 62
7
100
AcDbLine
 10
343.650460
 20
182.000010
 30
0.0
 11
355.522100
 21
182.000010
 31
0.0
  0
LINE
  5
28f
100
AcDbEntity
  8
Layer_1
 62
7
100
AcDbLine
 10
355.522100
 20
182.000010
 30
0.0
 11
355.525100
 21
182.000010
 31
0.0
  0
SPLINE
  5
290
100
AcDbEntity
  8
Layer_1
 62
7
100
AcDbSpline
 70
8
 71
3
 72
8
 73
4
 74
0
 40
0
 40
0
 40
0
 40
0
 40
1
 40
1
 40
1
 40
1
 10
355.525100
 20
182.000010
 30
0.0
 10
356.179768
 20
181.019785
 30
0.0
 10
357.020613
 20
180.177710
 30
0.0
 10
357.999880
 20
179.521610
 30
0.0
  0
SPLINE
  5
291
100
AcDbEntity
  8
Layer_1
 62
7
100
AcDbSpline
 70
8
 71
3
 72
8
 73
4
 74
0
 40
0
 40
0
 40
0
 40
0
 40
1
 40
1
 40
1
 40
1
 10
357.999880
 20
179.521610
 30
0.0
 10
357.999880
 20
179.521610
 30
0.0
 10
357.999880
 20
167.660830
 30
0.0
 10
357.999880
 20
167.660830
 30
0.0
  0
SPLINE
  5
292
100
AcDbEntity
  8
Layer_1
 62
7
100
AcDbSpline
 70
8
 71
3
 72
8
 73
4
 74
0
 40
0
 40
0
 40
0
 40
0
 40
1
 40
1
 40
1
 40
1
 10
357.999880
 20
167.660830
 30
0.0
 10
350.967551
 20
169.480026
 30
0.0
 10
345.474415
 20
174.969046
 30
0.0
 10
343.649950
 20
182.000010
 30
0.0
  0
LINE
  5
293
100
AcDbEntity
  8
Layer_1
 62
7
100
AcDbLine
 10
343.649950
 20
182.000010
 30
0.0
 11
343.649950
 21
182.000010
 31
0.0
  0
SPLINE
  5
294
100
AcDbEntity
  8
Layer_1
 62
7
100
AcDbSpline
 70
8
 71
3
 72
8
 73
4
 74
0
 40
0
 40
0
 40
0
 40
0
 40
1
 40
1
 40
1
 40
1
 10
370.478810
 20
182.000010
 30
0.0
 10
370.478810
 20
182.000010
 30
0.0
 10
382.340080
 20
182.000010
 30
0.0
 10
382.340080
 20
182.000010
 30
0.0
  0
SPLINE
  5
295
100
AcDbEntity
  8
Layer_1
 62
7
100
AcDbSpline
 70
8
 71
3
 72
8
 73
4
 74
0
 40
0
 40
0
 40
0
 40
0
 40
1
 40
1
 40
1
 40
1
 10
382.340080
 20
182.000010
 30
0.0
 10
380.520664
 20
174.967714
 30
0.0
 10
375.031448
 20
169.474734
 30
0.0
 10
368.000400
 20
167.650500
 30
0.0
  0
LINE
  5
296
100
AcDbEntity
  8
Layer_1
 62
7
100
AcDbLine
 10
368.000400
 20
167.650500
 30
0.0
 11
368.000400
 21
179.524710
 31
0.0
  0
SPLINE
  5
297
100
AcDbEntity
  8
Layer_1
 62
7
100
AcDbSpline
 70
8
 71
3
 72
8
 73
4
 74
0
 40
0
 40
0
 40
0
 40
0
 40
1
 40
1
 40
1
 40
1
 10
368.000400
 20
179.524710
 30
0.0
 10
368.980678
 20
180.179529
 30
0.0
 10
369.822761
 20
181.020555
 30
0.0
 10
370.478810
 20
182.000010
 30
0.0
  0
LINE
  5
298
100
AcDbEntity
  8
Layer_1
 62
7
100
AcDbLine
 10
370.478810
 20
182.000010
 30
0.0
 11
370.478810
 21
182.000010
 31
0.0
  0
SPLINE
  5
299
100
AcDbEntity
  8
Layer_1
 62
7
100
AcDbSpline
 70
8
 71
3
 72
8
 73
4
 74
0
 40
0
 40
0
 40
0
 40
0
 40
1
 40
1
 40
1
 40
1
 10
363.000200
 20
279.999901
 30
0.0
 10
346.431872
 20
279.999752
 30
0.0
 10
333.000624
 20
266.568508
 30
0.0
 10
333.000470
 20
250.000180
 30
0.0
  0
SPLINE
  5
29a
100
AcDbEntity
  8
Layer_1
 62
7
100
AcDbSpline
 70
8
 71
3
 72
8
 73
4
 74
0
 40
0
 40
0
 40
0
 40
0
 40
1
 40
1
 40
1
 40
1
 10
333.000470
 20
250.000180
 30
0.0
 10
333.000332
 20
233.431645
 30
0.0
 10
346.431665
 20
220.000079
 30
0.0
 10
363.000200
 20
219.999930
 30
0.0
  0
SPLINE
  5
29b
100
AcDbEntity
  8
Layer_1
 62
7
100
AcDbSpline
 70
8
 71
3
 72
8
 73
4
 74
0
 40
0
 40
0
 40
0
 40
0
 40
1
 40
1
 40
1
 40
1
 10
363.000200
 20
219.999930
 30
0.0
 10
370.956778
 20
219.999869
 30
0.0
 10
378.587492
 20
223.160582
 30
0.0
 10
384.213641
 20
228.786734
 30
0.0
  0
SPLINE
  5
29c
100
AcDbEntity
  8
Layer_1
 62
7
100
AcDbSpline
 70
8
 71
3
 72
8
 73
4
 74
0
 40
0
 40
0
 40
0
 40
0
 40
1
 40
1
 40
1
 40
1
 10
384.213641
 20
228.786734
 30
0.0
 10
389.839789
 20
234.412886
 30
0.0
 10
393.000496
 20
242.043602
 30
0.0
 10
393.000430
 20
250.000180
 30
0.0
  0
SPLINE
  5
29d
100
AcDbEntity
  8
Layer_1
 62
7
100
AcDbSpline
 70
8
 71
3
 72
8
 73
4
 74
0
 40
0
 40
0
 40
0
 40
0
 40
1
 40
1
 40
1
 40
1
 10
393.000430
 20
250.000180
 30
0.0
 10
393.000276
 20
266.568703
 30
0.0
 10
379.568723
 20
280.000028
 30
0.0
 10
363.000200
 20
279.999901
 30
0.0
  0
LINE
  5
29e
100
AcDbEntity
  8
Layer_1
 62
7
100
AcDbLine
 10
363.000200
 20
279.999901
 30
0.0
 11
363.000200
 21
279.999901
 31
0.0
  0
LINE
  5
29f
100
AcDbEntity
  8
Layer_1
 62
7
100
AcDbLine
 10
358.000500
 20
269.349901
 30
0.0
 11
358.000500
 21
257.475178
 31
0.0
  0
SPLINE
  5
2a0
100
AcDbEntity
  8
Layer_1
 62
7
100
AcDbSpline
 70
8
 71
3
 72
8
 73
4
 74
0
 40
0
 40
0
 40
0
 40
0
 40
1
 40
1
 40
1
 40
1
 10
358.000500
 20
257.475178
 30
0.0
 10
357.020225
 20
256.820355
 30
0.0
 10
356.178145
 20
255.979325
 30
0.0
 10
355.522100
 20
254.999867
 30
0.0
  0
LINE
  5
2a1
100
AcDbEntity
  8
Layer_1
 62
7
100
AcDbLine
 10
355.522100
 20
254.999867
 30
0.0
 11
343.661330
 21
254.999867
 31
0.0
  0
SPLINE
  5
2a2
100
AcDbEntity
  8
Layer_1
 62
7
100
AcDbSpline
 70
8
 71
3
 72
8
 73
4
 74
0
 40
0
 40
0
 40
0
 40
0
 40
1
 40
1
 40
1
 40
1
 10
343.661330
 20
254.999867
 30
0.0
 10
345.480491
 20
262.032234
 30
0.0
 10
350.969513
 20
267.525414
 30
0.0
 10
358.000500
 20
269.349901
 30
0.0
  0
LINE
  5
2a3
100
AcDbEntity
  8
Layer_1
 62
7
100
AcDbLine
 10
358.000500
 20
269.349901
 30
0.0
 11
358.000500
 21
269.349901
 31
0.0
  0
SPLINE
  5
2a4
100
AcDbEntity
  8
Layer_1
 62
7
100
AcDbSpline
 70
8
 71
3
 72
8
 73
4
 74
0
 40
0
 40
0
 40
0
 40
0
 40
1
 40
1
 40
1
 40
1
 10
368.000400
 20
269.339601
 30
0.0
 10
375.032908
 20
267.520354
 30
0.0
 10
380.526126
 20
262.031100
 30
0.0
 10
382.350450
 20
254.999907
 30
0.0
  0
LINE
  5
2a5
100
AcDbEntity
  8
Layer_1
 62
7
100
AcDbLine
 10
382.350450
 20
254.999907
 30
0.0
 11
370.478810
 21
254.999907
 31
0.0
  0
LINE
  5
2a6
100
AcDbEntity
  8
Layer_1
 62
7
100
AcDbLine
 10
370.478810
 20
254.999907
 30
0.0
 11
370.475810
 21
254.999907
 31
0.0
  0
SPLINE
  5
2a7
100
AcDbEntity
  8
Layer_1
 62
7
100
AcDbSpline
 70
8
 71
3
 72
8
 73
4
 74
0
 40
0
 40
0
 40
0
 40
0
 40
1
 40
1
 40
1
 40
1
 10
370.475810
 20
254.999907
 30
0.0
 10
369.820987
 20
255.980183
 30
0.0
 10
368.979958
 20
256.822262
 30
0.0
 10
368.000500
 20
257.478308
 30
0.0
  0
LINE
  5
2a8
100
AcDbEntity
  8
Layer_1
 62
7
100
AcDbLine
 10
368.000500
 20
257.478308
 30
0.0
 11
368.000400
 21
269.339601
 31
0.0
  0
SPLINE
  5
2a9
100
AcDbEntity
  8
Layer_1
 62
7
100
AcDbSpline
 70
8
 71
3
 72
8
 73
4
 74
0
 40
0
 40
0
 40
0
 40
0
 40
1
 40
1
 40
1
 40
1
 10
363.000200
 20
252.454851
 30
0.0
 10
364.353249
 20
252.455041
 30
0.0
 10
365.450317
 20
251.358429
 30
0.0
 10
365.450690
 20
250.005380
 30
0.0
  0
SPLINE
  5
2aa
100
AcDbEntity
  8
Layer_1
 62
7
100
AcDbSpline
 70
8
 71
3
 72
8
 73
4
 74
0
 40
0
 40
0
 40
0
 40
0
 40
1
 40
1
 40
1
 40
1
 10
365.450690
 20
250.005380
 30
0.0
 10
365.449689
 20
249.233150
 30
0.0
 10
365.084686
 20
248.506583
 30
0.0
 10
364.465750
 20
248.044784
 30
0.0
  0
SPLINE
  5
2ab
100
AcDbEntity
  8
Layer_1
 62
7
100
AcDbSpline
 70
8
 71
3
 72
8
 73
4
 74
0
 40
0
 40
0
 40
0
 40
0
 40
1
 40
1
 40
1
 40
1
 10
364.465750
 20
248.044784
 30
0.0
 10
364.465750
 20
248.044784
 30
0.0
 10
361.535710
 20
248.044784
 30
0.0
 10
361.535710
 20
248.044784
 30
0.0
  0
SPLINE
  5
2ac
100
AcDbEntity
  8
Layer_1
 62
7
100
AcDbSpline
 70
8
 71
3
 72
8
 73
4
 74
0
 40
0
 40
0
 40
0
 40
0
 40
1
 40
1
 40
1
 40
1
 10
361.535710
 20
248.044784
 30
0.0
 10
360.916563
 20
248.506466
 30
0.0
 10
360.551342
 20
249.233051
 30
0.0
 10
360.550210
 20
250.005380
 30
0.0
  0
SPLINE
  5
2ad
100
AcDbEntity
  8
Layer_1
 62
7
100
AcDbSpline
 70
8
 71
3
 72
8
 73
4
 74
0
 40
0
 40
0
 40
0
 40
0
 40
1
 40
1
 40
1
 40
1
 10
360.550210
 20
250.005380
 30
0.0
 10
360.550583
 20
251.358234
 30
0.0
 10
361.647346
 20
252.454764
 30
0.0
 10
363.000200
 20
252.454851
 30
0.0
  0
LINE
  5
2ae
100
AcDbEntity
  8
Layer_1
 62
7
100
AcDbLine
 10
363.000200
 20
252.454851
 30
0.0
 11
363.000200
 21
252.454851
 31
0.0
  0
LINE
  5
2af
100
AcDbEntity
  8
Layer_1
 62
7
100
AcDbLine
 10
343.650480
 20
245.000003
 30
0.0
 11
355.522100
 21
245.000003
 31
0.0
  0
LINE
  5
2b0
100
AcDbEntity
  8
Layer_1
 62
7
100
AcDbLine
 10
355.522100
 20
245.000003
 30
0.0
 11
355.525100
 21
245.000003
 31
0.0
  0
SPLINE
  5
2b1
100
AcDbEntity
  8
Layer_1
 62
7
100
AcDbSpline
 70
8
 71
3
 72
8
 73
4
 74
0
 40
0
 40
0
 40
0
 40
0
 40
1
 40
1
 40
1
 40
1
 10
355.525100
 20
245.000003
 30
0.0
 10
356.179915
 20
244.019732
 30
0.0
 10
357.020934
 20
243.177654
 30
0.0
 10
358.000380
 20
242.521607
 30
0.0
  0
SPLINE
  5
2b2
100
AcDbEntity
  8
Layer_1
 62
7
100
AcDbSpline
 70
8
 71
3
 72
8
 73
4
 74
0
 40
0
 40
0
 40
0
 40
0
 40
1
 40
1
 40
1
 40
1
 10
358.000380
 20
242.521607
 30
0.0
 10
358.000380
 20
242.521607
 30
0.0
 10
358.000380
 20
230.660824
 30
0.0
 10
358.000380
 20
230.660824
 30
0.0
  0
SPLINE
  5
2b3
100
AcDbEntity
  8
Layer_1
 62
7
100
AcDbSpline
 70
8
 71
3
 72
8
 73
4
 74
0
 40
0
 40
0
 40
0
 40
0
 40
1
 40
1
 40
1
 40
1
 10
358.000380
 20
230.660824
 30
0.0
 10
350.968063
 20
232.480029
 30
0.0
 10
345.474940
 20
237.969047
 30
0.0
 10
343.650480
 20
245.000003
 30
0.0
  0
LINE
  5
2b4
100
AcDbEntity
  8
Layer_1
 62
7
100
AcDbLine
 10
343.650480
 20
245.000003
 30
0.0
 11
343.650480
 21
245.000003
 31
0.0
  0
SPLINE
  5
2b5
100
AcDbEntity
  8
Layer_1
 62
7
100
AcDbSpline
 70
8
 71
3
 72
8
 73
4
 74
0
 40
0
 40
0
 40
0
 40
0
 40
1
 40
1
 40
1
 40
1
 10
370.478810
 20
245.000003
 30
0.0
 10
370.478810
 20
245.000003
 30
0.0
 10
382.340100
 20
245.000003
 30
0.0
 10
382.340100
 20
245.000003
 30
0.0
  0
SPLINE
  5
2b6
100
AcDbEntity
  8
Layer_1
 62
7
100
AcDbSpline
 70
8
 71
3
 72
8
 73
4
 74
0
 40
0
 40
0
 40
0
 40
0
 40
1
 40
1
 40
1
 40
1
 10
382.340100
 20
245.000003
 30
0.0
 10
380.520681
 20
237.967702
 30
0.0
 10
375.031455
 20
232.474722
 30
0.0
 10
368.000400
 20
230.650494
 30
0.0
  0
SPLINE
  5
2b7
100
AcDbEntity
  8
Layer_1
 62
7
100
AcDbSpline
 70
8
 71
3
 72
8
 73
4
 74
0
 40
0
 40
0
 40
0
 40
0
 40
1
 40
1
 40
1
 40
1
 10
368.000400
 20
230.650494
 30
0.0
 10
368.000400
 20
230.650494
 30
0.0
 10
368.000400
 20
242.524707
 30
0.0
 10
368.000400
 20
242.524707
 30
0.0
  0
SPLINE
  5
2b8
100
AcDbEntity
  8
Layer_1
 62
7
100
AcDbSpline
 70
8
 71
3
 72
8
 73
4
 74
0
 40
0
 40
0
 40
0
 40
0
 40
1
 40
1
 40
1
 40
1
 10
368.000400
 20
242.524707
 30
0.0
 10
368.980677
 20
243.179525
 30
0.0
 10
369.822760
 20
244.020550
 30
0.0
 10
370.478810
 20
245.000003
 30
0.0
  0
LINE
  5
2b9
100
AcDbEntity
  8
Layer_1
 62
7
100
AcDbLine
 10
370.478810
 20
245.000003
 30
0.0
 11
370.478810
 21
245.000003
 31
0.0
  0
ENDSEC
  0
SECTION
  2
OBJECTS
  0
DICTIONARY
  5
C
330
0
100
AcDbDictionary
  3
ACAD_GROUP
350
D
  3
ACAD_MLINESTYLE
350
17
  0
DICTIONARY
  5
D
330
C
100
AcDbDictionary
  0
DICTIONARY
  5
1A
330
C
100
AcDbDictionary
  0
DICTIONARY
  5
17
330
C
100
AcDbDictionary
  3
STANDARD
350
18
  0
DICTIONARY
  5
19
330
C
100
AcDbDictionary
  0
ENDSEC
  0
EOF
